<?xml version="1.0" encoding="utf-8"?>
<!-- Generator: Adobe Illustrator 24.2.1, SVG Export Plug-In . SVG Version: 6.00 Build 0)  -->
<svg version="1.1" id="svg" xmlns="http://www.w3.org/2000/svg" xmlns:xlink="http://www.w3.org/1999/xlink" x="0px" y="0px"
	 viewBox="0 0 400 457.3" style="enable-background:new 0 0 400 457.3;" xml:space="preserve">
<style type="text/css">
	.st7{fill:#FCFCFC;}
	.st8{fill:#040404;}
</style>
<g id="svgg_1_">
	<path id="path0_2_" class="st7" d="M237.8,76.6l0.1,1.7l1.7-0.1l1.7-0.1l0.2,1.7l0.2,1.7l1.7-0.1l1.7-0.1l0.2,1.7l0.2,1.7l1.7-0.1
		l1.7-0.1l-0.1-1.7l-0.1-1.7l1.7-0.1l1.7-0.1l0.1,1.7l0.1,1.7l1.7-0.1l1.7-0.1l-0.1-1.7l-0.1-1.7l-1.7,0.1l-1.7,0.1l-0.2-1.7
		l-0.2-1.7l-1.7,0.1l-1.7,0.1l-0.2-1.7l-0.2-1.7l-1.7,0.1l-1.7,0.1l0.1,1.7l0.1,1.7l-1.7,0.1l-1.7,0.1l-0.1-1.7l-0.1-1.7l-1.7,0.1
		l-1.7,0.1L237.8,76.6 M286.3,72.7l0.1,1.7l1.7-0.1l1.7-0.1l0.2,1.7l0.2,1.7l1.7-0.1l1.7-0.1l0.1,1.7l0.1,1.7l1.7-0.1l1.7-0.1
		l-0.1-1.7l-0.1-1.7l1.7-0.1l1.7-0.1l0.2,1.7l0.2,1.7l1.7-0.1l1.7-0.1l-0.1-1.7l-0.1-1.7l-1.7,0.1l-1.7,0.1l-0.1-1.7l-0.1-1.7
		l-1.7,0.1l-1.7,0.1l-0.1-1.7l-0.1-1.7l-1.7,0.1l-1.7,0.1l0.1,1.7l0.1,1.7l-1.7,0.1l-1.7,0.1l-0.1-1.7l-0.1-1.7l-1.7,0.1l-1.7,0.1
		L286.3,72.7 M248.4,79.3l0.1,1.7l-1.7,0.1l-1.7,0.1l-0.1-1.7l-0.1-1.7l1.7-0.1l1.7-0.1L248.4,79.3 M296.9,75.3l0.1,1.7l-1.7,0.1
		l-1.7,0.1l-0.1-1.7l-0.1-1.7l1.7-0.1l1.7-0.1L296.9,75.3"/>
	<path id="path1" class="st8" d="M230.7,75.5L231,79l1.7-0.1l1.7-0.1l0.1,1.7l0.1,1.7l1.7-0.1l1.7-0.1l0.1,1.7l0.1,1.7l1.7-0.1
		l1.7-0.1l0.1,1.7l0.1,1.7l12.1-1l12.1-1l-0.1-1.7l-0.1-1.7l1.7-0.1l1.7-0.1l-0.1-1.7l-0.1-1.7l1.7-0.1l1.7-0.1l-0.3-3.4l-0.3-3.4
		l3.4-0.3l3.4-0.3l0.3,3.4l0.3,3.4l1.7-0.1l1.7-0.1l0.1,1.7l0.1,1.7l1.7-0.1l1.7-0.1l0.1,1.7l0.1,1.7l12-1l12-1l-0.1-1.7l-0.1-1.7
		l1.7-0.1l1.7-0.1l-0.1-1.7l-0.1-1.7l1.7-0.1l1.7-0.1l-0.1-1.7l-0.1-1.7l1.7-0.1l1.7-0.1l-0.3-3.5l-0.3-3.5l-44.7,3.6L230.5,72
		L230.7,75.5 M241.2,76.4l0.1,1.7l1.7-0.1l1.7-0.1l-0.1-1.7l-0.1-1.7l1.7-0.1l1.7-0.1l0.2,1.7l0.2,1.7l1.7-0.1l1.7-0.1l0.2,1.7
		l0.2,1.7l1.7-0.1l1.7-0.1l0.1,1.7l0.1,1.7l-1.7,0.1l-1.7,0.1l-0.1-1.7l-0.1-1.7l-1.7,0.1l-1.7,0.1l0.1,1.7l0.1,1.7l-1.7,0.1
		l-1.7,0.1l-0.2-1.7l-0.2-1.7l-1.7,0.1l-1.7,0.1l-0.2-1.7l-0.2-1.7l-1.7,0.1l-1.7,0.1l-0.1-1.7l-0.1-1.7l1.7-0.1l1.7-0.1L241.2,76.4
		 M289.7,72.4l0.1,1.7l1.7-0.1l1.7-0.1l-0.1-1.7l-0.1-1.7l1.7-0.1l1.7-0.1l0.1,1.7l0.1,1.7l1.7-0.1l1.7-0.1l0.1,1.7l0.1,1.7l1.7-0.1
		l1.7-0.1l0.1,1.7l0.1,1.7l-1.7,0.1l-1.7,0.1l-0.2-1.7l-0.2-1.7l-1.7,0.1l-1.7,0.1l0.1,1.7l0.1,1.7l-1.7,0.1l-1.7,0.1l-0.1-1.7
		l-0.1-1.7l-1.7,0.1l-1.7,0.1l-0.2-1.7l-0.2-1.7l-1.7,0.1l-1.7,0.1l-0.1-1.7l-0.1-1.7l1.7-0.1l1.7-0.1L289.7,72.4 M244.9,79.5
		l0.1,1.7l1.7-0.1l1.7-0.1l-0.1-1.7l-0.1-1.7l-1.7,0.1l-1.7,0.1L244.9,79.5 M293.5,75.6l0.1,1.7l1.7-0.1l1.7-0.1l-0.1-1.7l-0.1-1.7
		l-1.7,0.1l-1.7,0.1L293.5,75.6"/>
</g>
</svg>
