<?xml version="1.0" encoding="utf-8"?>
<!-- Generator: Adobe Illustrator 24.2.1, SVG Export Plug-In . SVG Version: 6.00 Build 0)  -->
<svg version="1.1" id="Layer_1" xmlns="http://www.w3.org/2000/svg" xmlns:xlink="http://www.w3.org/1999/xlink" x="0px" y="0px"
	 viewBox="0 0 750 750" style="enable-background:new 0 0 750 750;" xml:space="preserve">
<style type="text/css">
	.st0{fill:#F24E4D;}
	.st1{fill:#E9EAEA;}
	.st2{fill:none;stroke:#000000;stroke-width:6;stroke-linecap:round;stroke-miterlimit:10;}
	.st3{opacity:0.19;fill:#000000;}
	.st4{opacity:0.19;fill:#ffffff;}
	.st5{fill:#0A3142;}
	.st6{fill:#D1D1D1;}
	.st7{fill:#FFFFFF;}
	.st8{fill:#03283D;}
</style>
<g>
	<path class="st0" d="M386.45,1999.82c0,0,60.45,76.65,120.98,46.22c0,0-21.37,3.82-39.98-83.29l-34.28-213.08
		c0,0-10.84-54-72.79-64.9c0,0-144.48-47.59-257.7,22.13c0,0-19.06,1.97-34.5,66l-32.56,204c0,0-12.64,60.11-35.73,69.14
		c0,0,53.67,36.21,111.15-41.6l2.38-15.26c0,0-16.49-101.52-8.61-125.59l291.96-1.91C396.78,1861.69,407.08,1896.55,386.45,1999.82z
		"/>
	<path class="st1" d="M105.61,1865.96h293.15c0,0,30.62,192.74-147.22,288.13C251.54,2154.1,92.21,2098.26,105.61,1865.96z"/>
	<path class="st2" d="M266.24,1684.77"/>
	<path class="st0" d="M125.86,2001.36c0,0,88.86,48.42,249.84,10.12c0,0-23.56,91.82-124.49,141.79
		C251.22,2153.26,148.35,2107.71,125.86,2001.36z"/>
	<path class="st3" d="M418.01,1731.54c0,0-36.81-6.29-32.46,42.1l-9.31-0.74c0,0-4.77-40.93,20.88-48.01
		C397.12,1724.89,409.52,1722.94,418.01,1731.54z"/>
	<path class="st3" d="M87.74,1729.46c0,0,38.81-10.16,34.99,44.19l9.01-0.74c0,0,5.02-42.99-22-50.43
		C109.74,1722.47,96.69,1720.42,87.74,1729.46z"/>
	<path class="st3" d="M154,2014.13c0,0-2.16-0.83-4.83-1.08c-6.02-0.56-9.82,6.5-5.99,11.18c1.65,2.01,4.31,4.03,8.59,5.54
		c0,0,110.76,40.41,199.53,23.08c0,0-3.08,10.01-20.53,11.34c0,0-85.95,12.98-193.9-31.57c0,0-10.8-15.35-10.98-21.75
		C125.89,2010.86,127.54,2001.22,154,2014.13z"/>
	<path class="st3" d="M324.5,2056.56c14.89-2.23,25.31-8.19,37.97-22.34c0,0,2.98,19.36-22.15,21.05
		C328.81,2056.06,324.5,2056.56,324.5,2056.56z"/>
	<path class="st3" d="M314.48,2068.4c0,0,0.87,0.06,2.16,0.25c8.43,1.21,6.9,10.39-4.05,18.44c-0.07,0.05-15.64,11.91-69.99,13.4
		c0,0-61.8,0.74-75.2-23.08c0,0,14.15,25.31,24.57,28.29c0,0,27.67,6.81,65.95,4.15c0,0,62.11-5.64,71.78-22.76
		c0,0,10.3-9.78,4.04-17.92C333.75,2069.17,326.79,2063.85,314.48,2068.4z"/>
	<path class="st3" d="M214.16,2113.06c0,0-0.01-0.01-0.02,0c-2.8,0.83-2.06,3.81-0.57,5.3c4.84,4.84,15.96,11.98,33.6,22.17
		c1.85,1.07,4.08,1.3,6.11,0.64c5.34-1.73,16.75-5.66,30.27-11.64l-5.78,5.7l-28.47,18.03l-47.76-32.79l0.12-8.82
		C201.65,2111.66,208.8,2112.24,214.16,2113.06z"/>
	<rect x="139.11" y="1759.5" class="st3" width="228.57" height="13.4"/>
	<path class="st3" d="M366.94,1772.9c0,0,1.49-14.15,7.45-34.99c0,0-13.97,9.68-18.61,34.99H366.94z"/>
	<path class="st3" d="M151.03,1772.9c0,0-3.72-26.8-17.87-34.99c0,0,6.7,17.12,7.45,34.99H151.03z"/>
	<path class="st3" d="M410.01,1834.69l0.05-13.77c-0.04,10.79-5.98,13.29-9.85,13.77H102.06c-3.87-0.48-9.81-2.98-9.85-13.77
		l0.05,13.77h-0.05v8.3c0,7.75,6.28,14.03,14.03,14.03h289.84c7.75,0,14.03-6.28,14.03-14.03v-8.3H410.01z"/>
	<path class="st3" d="M410.12,1857.03c0,0,3.65,47.52-2.52,92.85c-2.49,18.26,0.26,36.92,8.65,53.33
		c9,17.61,24.89,35.17,52.69,36.97c0,0,15.31-0.03,5.05-15.65c0,0-19.47-38.35-18.59-107.39c0,0,20.94,111.28,43.67,124.98
		l8.36,7.84c0,0-26.82,3.88-37.87,4.5c0,0-42.6-2.59-78.2-53.1c0,0-4.9,5.21,3.2-65.46c0,0,6.52-68.44,6.2-69.93
		C400.44,1864.48,410.12,1857.03,410.12,1857.03z"/>
	<path class="st3" d="M91.12,1857.03c0,0-3.67,47.82,2.58,93.28c2.33,16.97,0.05,34.32-7.21,49.84
		c-8.49,18.14-24.02,37.2-52.12,39.87c-2.26,0.21-4.56-0.59-5.99-2.35c-1.59-1.95-2.43-5.3,0.54-10.89c0,0,21.59-25.31,21.59-107.21
		c0,0-20.1,87.85-37.23,114.66l-13.4,14.15c0,0,20.74,5.47,31.79,6.08c0,0,42.6-2.59,78.2-53.1c0,0,4.9,5.21-3.2-65.46
		c0,0-6.52-68.44-6.2-69.93C100.8,1864.48,91.12,1857.03,91.12,1857.03z"/>
	<path class="st4" d="M148.56,1701.45c0.51-3.99,2.96-7.57,6.93-8.21c25.47-4.12,140.39-21.14,200.28,5.21
		c12.41,5.46,15.55,11.42,11.2,19.09c-4.65,8.17-14.48,11.89-23.49,9.23c-27.7-8.17-99.25-29.85-187.7-18.13
		c-1.88,0.25-3.83-0.24-5.26-1.49C149.25,1706.03,148.2,1704.26,148.56,1701.45z"/>
	<path class="st4" d="M385.81,1819.06H115.78c-6,0-10.91-4.91-10.91-10.91v-1.26c0-6,4.91-10.91,10.91-10.91h270.03
		c6,0,10.91,4.91,10.91,10.91v1.26C396.72,1814.15,391.81,1819.06,385.81,1819.06z"/>
	<path class="st4" d="M239.41,2034.6c19.57,0.79,67.96,4.84,112.25-8.58c3.2-0.97,5.77,2.69,3.65,5.27
		c-0.25,0.31-4.75,6.65-14.43,12.61c-10.22,6.29-36.32,5.76-45.42,5.96c-14.6,0.32-65.52-5.21-65.52-11.17
		C229.95,2034.97,238.02,2034.55,239.41,2034.6z"/>
	<path class="st4" d="M171.41,2059.18c9.93,2.83,30.97,7.82,72.46,14.25c1.81,0.28,3.52,1.16,4.65,2.61
		c1.04,1.34,1.72,3.24,0.64,5.72c-0.92,2.11-2.76,3.65-4.93,4.42c-6.32,2.22-24.18,5.31-63.23-7.61c-2.4-0.79-4.57-2.16-6.34-3.97
		c-2.21-2.27-5.27-5.72-7.66-9.66C165.16,2061.91,168.01,2058.21,171.41,2059.18z"/>
	<path class="st4" d="M236.15,2120.5c8.38,0.49,22.18,0.88,37.53-0.32c1.81-0.14,2.42,2.37,0.75,3.07l-17.95,7.56
		c-3.58,1.51-7.67,1.25-11.03-0.7l-10.37-6C233.31,2123.09,234.11,2120.38,236.15,2120.5z"/>
	<path class="st4" d="M424.27,1758.75c0,0,36.43,218.66,20.1,213.68c-4.11-1.26-6.7-5.64-8.19-9.68
		C431.09,1948.94,424.27,1898.72,424.27,1758.75z"/>
	<path class="st4" d="M83.02,1758.75c0,0-36.43,218.66-20.1,213.68c4.11-1.26,6.7-5.64,8.19-9.68
		C76.19,1948.94,83.02,1898.72,83.02,1758.75z"/>
	<path class="st0" d="M379.59,1997.75c0,0-60.31-10.04-102-55.65c0,0-10.2-10.39-26.76-9.8c-10.42,0.37-20.13,5.29-27.09,13.06
		c-9.66,10.79-31.69,31.9-100.96,51.85c0,0,18.57,22.13,131.74,29.58C254.51,2026.78,344.88,2034.43,379.59,1997.75z"/>
	<path class="st3" d="M286.72,2001.36c0,0,23.63,12.77,40.76,10.54c0,0,32.23-9.16,35.1-10.54c0,0,10.23-1.66-20.26-13.43
		l33.38,9.04v7.48l-55.77,17.79L286.72,2001.36z"/>
	<path class="st3" d="M220.27,2000.72l-6.69,12.16c-0.76,1.38,0.04,3.09,1.58,3.39c8.99,1.73,36.91,6.02,74.5,1.4
		c1.77-0.22,2.62-2.28,1.51-3.67c-2.04-2.57-5.26-7.08-9.87-14.76l25.31,17.12l-6.31,10l-49.11,1.08l-53.25-5.46l-1.53-6.37
		L220.27,2000.72z"/>
	<path class="st3" d="M208.06,2006.36c0,0-19.83,7.98-34.71,3.03l-27.54-7.93c0,0-1.79-1.34,2.26-3.33
		c4.99-2.45,9.86-5.15,14.45-8.28c2.56-1.75,5.71-3.88,9.53-6.45l-12.19,1.94l-33.96,14.41l8.38,4.68l23.37,8.7l20.66,5.16h14.75
		L208.06,2006.36z"/>
	<path class="st3" d="M297.6,1977.97c0,0-6.61-9.26-4.37-12.24c0,0,1.07-4.58,15.64,3.72l-25.31-20.85l-5.9,6.76l17.6,25.64
		L297.6,1977.97z"/>
	<path class="st3" d="M209.1,1976.9c0,0,7.07-10.42,4.84-13.4c0,0,0.1-4.7-14.47,3.61l24.15-20.73l5.9,6.76l-17.6,25.64
		L209.1,1976.9z"/>
	<path class="st3" d="M236.65,1947.86c0,0,2-10.42,17.12-10.42c0,0,12.66,0.74,15.63,11.17l1.49-14.82l-17.85-6.71l-15.98,4.29
		l-5.63,10.41L236.65,1947.86z"/>
	<g>
		<path class="st5" d="M327.48,1937.49c0,0,19.27-1.69,29.48-19.29c0,0-27.03,20.77-50.08,5.42c-1.88-1.25-4.43-0.65-5.51,1.33l0,0
			c-0.91,1.67-0.47,3.75,1.05,4.9C306.59,1933.01,315.6,1938.43,327.48,1937.49z"/>
		<path class="st5" d="M178.12,1939.47c11.91,0.25,20.59-5.68,24.57-9.08c1.45-1.23,1.77-3.34,0.76-4.95l0,0
			c-1.2-1.92-3.77-2.37-5.58-1.01c-22.12,16.66-50.31-2.51-50.31-2.51C158.79,1938.9,178.12,1939.47,178.12,1939.47z"/>
		<path class="st5" d="M509.7,2045.4c-9.17-2.41-22.58-16.28-34.44-68.7c-7.21-31.88-36.88-222.08-36.88-222.08
			c-6.18-32.74-26.38-55.92-61.77-70.88c-6.78-2.87-29.23-9.05-29.23-9.05l-0.07-0.02c-70.32-15.11-123.41-10.92-186.22,0.73
			c0,0-29.81,6.89-40.17,11.74c-30.44,14.24-47.22,35.69-52.82,67.53l-19.06,120.98c-20.85,146.67-34.99,163.05-52.26,169.75
			l-5.8,1.52l5.39,2.64c0.74,0.36,18.33,8.83,42.84,6.96c14.4-1.1,28.18-5.56,40.95-13.27c10.27-6.2,19.89-14.51,28.76-24.83
			c4.59-5.33,13.14-4.17,16.12,2.2c5.8,12.38,13.52,27.96,16.45,32.83c22.79,37.88,51.68,68.32,84.5,89.26
			c13.42,8.8,22.43,12.59,23.35,12.97l0.86,0.41l0.93-0.4c0.01,0,0.02-0.01,0.03-0.01c52.51-20.93,100.96-86.36,105.83-94
			c10.19-15.96,17.62-30.86,22.62-42.1c3.03-6.81,12.12-8.07,16.92-2.37c9.16,10.88,19.14,19.61,29.81,26.05
			c12.78,7.71,26.55,12.18,40.95,13.27c2.43,0.19,4.79,0.27,7.08,0.27c20.76,0,35.1-6.9,35.76-7.23l5.38-2.64L509.7,2045.4z
			 M135.99,1691.09c37.33-12.49,87.75-15.15,111.82-15.72c0,0,67.07-4.75,122.03,16.43c22.58,10.86,11.3,33.38,10.53,34.86
			c-7.22,10.96-13.72,26.4-13.44,46.24H140.59c0.28-19.8-6.2-35.22-13.4-46.18C126.83,1726.04,113.09,1699.99,135.99,1691.09z
			 M107.1,1705.12l0.04,0.04c-0.05-0.04-0.09-0.09-0.13-0.13L107.1,1705.12z M69.25,2039.58c-0.7,0.45-1.42,0.89-2.14,1.34
			c-28.97,18.31-56.05,9.62-62.52,7.13c-0.6-0.23-0.68-1.03-0.14-1.39c1.62-1.08,3.18-2.47,4.7-4.12
			c9.38-8.1,27.94-34.07,40.29-116.28c0,0,14.15-93.07,25.31-157.09c2.37-13.59,5.75-24.47,9.61-33.23
			c7.54-17.11,31.55-18.04,40.2-1.46c2.08,4,3.76,8.06,5,12.18c3.68,12.14,2.7,21.35,2.23,25.78c-0.02,0.16-0.03,0.3-0.05,0.44
			h-19.45c-13.57,0-24.57,11-24.57,24.57v46.91c0,8.88,4.73,16.67,11.81,20.99v35.33c0,18.9,1.76,37.61,5.21,55.9
			C110.84,1988.88,96.94,2021.88,69.25,2039.58z M125.87,2004.44C125.86,2004.44,125.86,2004.44,125.87,2004.44
			c0.01,0,0.02,0.01,0.03,0.01C125.88,2004.44,125.87,2004.44,125.87,2004.44z M299.21,2115.91c-13.69,12.8-29.3,24.76-46.67,34.07
			c-1.41,0.75-3.1,0.76-4.53,0.05l-0.02-0.01c-16.15-8.64-30.68-19.57-43.51-31.34c-2.68-2.46-0.58-6.92,3.02-6.43
			c19.02,2.57,53.27,5.15,88.62-2.31C299.56,2109.2,301.78,2113.5,299.21,2115.91z M332.14,2079.72c-0.07,0.09-0.14,0.17-0.2,0.26
			c-6.58,8.38-15.38,14.77-25.43,18.3c-1.95,0.68-3.99,1.36-6.13,2.01c-18.88,5.78-48.74,11.06-89.74,7.13
			c-13.08-1.25-25.17-7.6-33.54-17.73c-9.6-11.61-17.58-22.92-23.86-32.63c-3.61-5.59,1.7-12.62,8.06-10.7
			c43.82,13.27,81.85,18.98,111.68,21.05c9.42,0.79,19.07,1.24,28.85,1.24c7.88,0,15.83-0.3,23.79-0.95
			C332.11,2067.18,336.16,2074.59,332.14,2079.72z M366.33,2027.28c-0.04,0.08-0.09,0.17-0.13,0.25c0,0-5.25,10.53-15.22,25.85
			c-3.07,4.72-8.05,7.89-13.63,8.61c-49.04,6.32-99.16-2.16-134.12-11.01c-29.25-7.4-53.66-13.99-64.24-20.88
			c-5.08-3.31-6.57-9.27-6.92-10.93c-1.23-5.89,2.61-11.29,8.31-9.37c34.73,11.73,126.52,36.42,217.19,7.14
			C363.81,2014.91,369.39,2021.46,366.33,2027.28z M372.28,2002.11c-14.28,6.13-32.36,11.29-41.09,13.64
			c-4.12,1.11-8.45,1.2-12.59,0.22c-8-1.89-22.09-6.95-40.25-20.46c0,0,8.17,13.06,22.16,20.81c2.53,1.4,1.84,5.2-1.03,5.58
			c-3.27,0.43-6.56,0.81-9.87,1.14c-27.23,2.67-38.8,1.52-76.03-1.46c-0.22-0.02-3.8-0.53-7.61-1.08c-2.77-0.4-3.48-4.02-1.11-5.5
			c12.6-7.82,19.89-19.47,19.89-19.47c-14.27,10.61-26.02,16.01-34.28,18.75c-4.59,1.52-9.5,1.78-14.21,0.7
			c-12.33-2.83-27.59-7.66-37.77-11.14c-3.18-1.08-3.06-5.62,0.17-6.53c15.53-4.38,43.42-15.9,82.69-46.18
			c2.57-1.98,6.06,0.8,4.71,3.75c-14.68,32.12-61.62,49.58-61.62,49.58c56.84-16.62,70.01-44.35,72.93-58.57
			c1.52-7.41,7.94-12.88,15.51-12.85c0.42,0,0.85,0.01,1.29,0.04c7.19,0.42,13.11,5.76,14.56,12.82
			c2.92,14.22,16.09,41.94,72.92,58.56c0,0-45.78-17.02-61.06-48.39c-1.4-2.88,2.1-5.68,4.62-3.7
			c18.97,14.83,54.69,39.72,86.47,44.75c2.56,0.41,3.07,3.94,0.69,4.98C372.32,2002.09,372.3,2002.1,372.28,2002.11z M381.58,1989.6
			c-9.72-2.1-61.77-14.95-106.17-57.33c0,0-18.67-16.43-42.49-1.54c0,0-69.24,57.33-111.36,61.15
			c-15.84-50.67-14.09-103.25-13.07-119.41c0.13-2,1.78-3.54,3.78-3.54h0.04h277.71h0.04c2.06,0,3.76,1.59,3.89,3.64
			C394.96,1888.6,396.63,1939.74,381.58,1989.6z M392.25,1857.03H107.86c0,0-9.25,0.54-13.8-11.83c-1.28-3.49-1.85-7.19-1.85-10.91
			v-29.92c0-2.62,0.36-5.23,1.19-7.71c1.82-5.4,6.17-11.86,16.56-11.86h284.39c0,0,9.25-0.54,13.8,11.83
			c1.28,3.47,1.85,7.16,1.86,10.86l0.1,30.45C410.12,1837.95,410.12,1857.03,392.25,1857.03z M502.49,2047.74
			c-0.02,0.01-0.03,0.02-0.03,0.02c-34.69,6.58-55.18-3.15-64.79-9.07c-0.72-0.45-1.44-0.89-2.15-1.35
			c-27.97-17.89-42.34-51.04-36.76-83.78c2.61-15.32,4.61-33.4,4.1-51.39v-36.88c7.03-4.33,11.73-12.09,11.73-20.94v-46.91
			c0-13.57-8.93-24.57-24.57-24.57h-13.78c-0.49-3.22-1.2-10.78,0.81-20.52c0.85-4.16,2.28-9.02,4.62-14.31
			c7.82-17.67,33.16-17.53,40.8,0.22c3.71,8.61,6.94,19.22,9.24,32.38c11.17,64.03,25.31,157.09,25.31,157.09
			c16.47,97.01,35.45,115.02,45.45,118.36C503.24,2046.38,503.22,2047.38,502.49,2047.74z"/>
		<path class="st6" d="M329.28,1890.96c0,0,23.51-4.89,41.47,13.61c0.46,0.48,0.69,1.14,1.06,1.69c1.17,1.73,4.29,7.14-0.39,9.97
			c-3.07,1.86-7.06,0.94-9.29-1.87c-3.6-4.55-12.43-12.13-32.43-14.87c-2.84-0.39-4.72-3.36-3.65-6.03
			C326.51,1892.31,327.47,1891.34,329.28,1890.96z"/>
		<path class="st6" d="M172.34,1890.96c0,0-23.51-4.89-41.47,13.61c-0.46,0.48-0.69,1.14-1.06,1.69c-1.17,1.73-4.29,7.14,0.39,9.97
			c3.07,1.86,7.06,0.94,9.29-1.87c3.6-4.55,12.43-12.13,32.43-14.87c2.84-0.39,4.72-3.36,3.65-6.03
			C175.11,1892.31,174.16,1891.34,172.34,1890.96z"/>
	</g>
	<path class="st4" d="M244.84,1947.86c-5.8,6.96-2.49,17.09-5.43,26.65c-2.36,7.67,1.33,15.96,9.25,17.26
		c0.28,0.05,0.57,0.09,0.86,0.12c0,0,0.34,0.08,0.94,0.15c9.03,1.07,16.55-6.87,15.2-15.86l-3.48-23.11
		C260.98,1945.14,248.56,1943.4,244.84,1947.86z"/>
</g>
<g>
	<path class="st7" d="M539.79,1801.38c32.61,0,49.38,19.51,49.38,53.64v6.71h-31.7v-8.84c0-15.24-6.09-21.03-16.76-21.03
		c-10.67,0-16.76,5.79-16.76,21.03c0,43.89,65.53,52.12,65.53,113.08c0,34.14-17.07,53.64-49.98,53.64
		c-32.92,0-49.99-19.51-49.99-53.64v-13.11h31.7v15.24c0,15.24,6.7,20.73,17.37,20.73c10.67,0,17.37-5.49,17.37-20.73
		c0-43.89-65.53-52.12-65.53-113.08C490.42,1820.89,507.18,1801.38,539.79,1801.38z"/>
	<path class="st7" d="M642.2,2017.18h-33.53v-213.35h33.53v91.44h38.1v-91.44h34.14v213.35H680.3v-91.44h-38.1V2017.18z"/>
	<path class="st7" d="M772.35,1893.73h46.02v30.48h-46.02v62.48h57.91v30.48h-91.44v-213.35h91.44v30.48h-57.91V1893.73z"/>
	<path class="st7" d="M921.09,2017.18c-1.83-5.49-3.05-8.84-3.05-26.21v-33.53c0-19.81-6.7-27.13-21.94-27.13h-11.58v86.87h-33.53
		v-213.35h50.59c34.75,0,49.68,16.15,49.68,49.07v16.76c0,21.95-7.01,36.27-21.95,43.28c16.76,7.01,22.25,23.16,22.25,45.41v32.92
		c0,10.36,0.31,17.98,3.66,25.91H921.09z M884.52,1834.3v65.53h13.11c12.5,0,20.12-5.49,20.12-22.55v-21.03
		c0-15.24-5.18-21.95-17.07-21.95H884.52z"/>
	<path class="st7" d="M1072.88,1856.55v27.74c0,34.14-16.46,52.73-49.98,52.73h-15.85v80.16h-33.53v-213.35h49.38
		C1056.42,1803.82,1072.88,1822.41,1072.88,1856.55z M1007.05,1834.3v72.24h15.85c10.67,0,16.46-4.88,16.46-20.12v-32
		c0-15.24-5.79-20.12-16.46-20.12H1007.05z"/>
	<path class="st7" d="M1194.5,2017.18h-33.83l-5.79-38.71h-41.15l-5.79,38.71h-30.78l34.14-213.35h49.07L1194.5,2017.18z
		 M1118,1949.51h32.31l-16.16-107.9L1118,1949.51z"/>
</g>
<g>
	<path class="st0" d="M1664.45,1999.82c0,0,60.45,76.65,120.98,46.22c0,0-21.37,3.82-39.98-83.29l-34.28-213.08
		c0,0-10.84-54-72.79-64.9c0,0-144.48-47.59-257.7,22.13c0,0-19.06,1.97-34.5,66l-32.56,204c0,0-12.64,60.11-35.73,69.14
		c0,0,53.67,36.21,111.15-41.6l2.38-15.26c0,0-16.49-101.52-8.61-125.59l291.96-1.91
		C1674.78,1861.69,1685.08,1896.55,1664.45,1999.82z"/>
	<path class="st1" d="M1383.61,1865.96h293.15c0,0,30.62,192.74-147.22,288.13C1529.54,2154.1,1370.21,2098.26,1383.61,1865.96z"/>
	<path class="st2" d="M1544.24,1684.77"/>
	<path class="st0" d="M1403.86,2001.36c0,0,88.86,48.42,249.84,10.12c0,0-23.56,91.82-124.49,141.79
		C1529.22,2153.26,1426.35,2107.71,1403.86,2001.36z"/>
	<path class="st3" d="M1696.01,1731.54c0,0-36.81-6.29-32.46,42.1l-9.31-0.74c0,0-4.77-40.93,20.88-48.01
		C1675.12,1724.89,1687.52,1722.94,1696.01,1731.54z"/>
	<path class="st3" d="M1365.74,1729.46c0,0,38.81-10.16,34.99,44.19l9.01-0.74c0,0,5.02-42.99-22-50.43
		C1387.74,1722.47,1374.69,1720.42,1365.74,1729.46z"/>
	<path class="st3" d="M1432,2014.13c0,0-2.16-0.83-4.83-1.08c-6.02-0.56-9.82,6.5-5.99,11.18c1.65,2.01,4.31,4.03,8.59,5.54
		c0,0,110.76,40.41,199.53,23.08c0,0-3.08,10.01-20.53,11.34c0,0-85.95,12.98-193.9-31.57c0,0-10.8-15.35-10.98-21.75
		C1403.89,2010.86,1405.54,2001.22,1432,2014.13z"/>
	<path class="st3" d="M1602.5,2056.56c14.89-2.23,25.31-8.19,37.97-22.34c0,0,2.98,19.36-22.15,21.05
		C1606.81,2056.06,1602.5,2056.56,1602.5,2056.56z"/>
	<path class="st3" d="M1592.48,2068.4c0,0,0.87,0.06,2.16,0.25c8.43,1.21,6.9,10.39-4.05,18.44c-0.07,0.05-15.64,11.91-69.99,13.4
		c0,0-61.8,0.74-75.2-23.08c0,0,14.15,25.31,24.57,28.29c0,0,27.67,6.81,65.95,4.15c0,0,62.11-5.64,71.78-22.76
		c0,0,10.3-9.78,4.04-17.92C1611.75,2069.17,1604.79,2063.85,1592.48,2068.4z"/>
	<path class="st3" d="M1492.16,2113.06c0,0-0.01-0.01-0.02,0c-2.8,0.83-2.06,3.81-0.57,5.3c4.84,4.84,15.96,11.98,33.6,22.17
		c1.85,1.07,4.08,1.3,6.11,0.64c5.34-1.73,16.75-5.66,30.27-11.64l-5.78,5.7l-28.47,18.03l-47.76-32.79l0.12-8.82
		C1479.65,2111.66,1486.8,2112.24,1492.16,2113.06z"/>
	<rect x="1417.11" y="1759.5" class="st3" width="228.57" height="13.4"/>
	<path class="st3" d="M1644.94,1772.9c0,0,1.49-14.15,7.45-34.99c0,0-13.97,9.68-18.61,34.99H1644.94z"/>
	<path class="st3" d="M1429.03,1772.9c0,0-3.72-26.8-17.87-34.99c0,0,6.7,17.12,7.45,34.99H1429.03z"/>
	<path class="st3" d="M1688.01,1834.69l0.05-13.77c-0.04,10.79-5.98,13.29-9.85,13.77h-298.15c-3.87-0.48-9.81-2.98-9.85-13.77
		l0.05,13.77h-0.05v8.3c0,7.75,6.28,14.03,14.03,14.03h289.84c7.75,0,14.03-6.28,14.03-14.03v-8.3H1688.01z"/>
	<path class="st3" d="M1688.12,1857.03c0,0,3.65,47.52-2.52,92.85c-2.49,18.26,0.26,36.92,8.65,53.33
		c9,17.61,24.89,35.17,52.69,36.97c0,0,15.31-0.03,5.05-15.65c0,0-19.47-38.35-18.59-107.39c0,0,20.94,111.28,43.67,124.98
		l8.36,7.84c0,0-26.82,3.88-37.87,4.5c0,0-42.6-2.59-78.2-53.1c0,0-4.9,5.21,3.2-65.46c0,0,6.52-68.44,6.2-69.93
		C1678.44,1864.48,1688.12,1857.03,1688.12,1857.03z"/>
	<path class="st3" d="M1369.12,1857.03c0,0-3.67,47.82,2.58,93.28c2.33,16.97,0.05,34.32-7.21,49.84
		c-8.49,18.14-24.02,37.2-52.12,39.87c-2.26,0.21-4.56-0.59-5.99-2.35c-1.59-1.95-2.43-5.3,0.54-10.89c0,0,21.59-25.31,21.59-107.21
		c0,0-20.1,87.85-37.23,114.66l-13.4,14.15c0,0,20.74,5.47,31.79,6.08c0,0,42.6-2.59,78.2-53.1c0,0,4.9,5.21-3.2-65.46
		c0,0-6.52-68.44-6.2-69.93C1378.8,1864.48,1369.12,1857.03,1369.12,1857.03z"/>
	<path class="st4" d="M1426.56,1701.45c0.51-3.99,2.96-7.57,6.93-8.21c25.47-4.12,140.39-21.14,200.28,5.21
		c12.41,5.46,15.55,11.42,11.2,19.09c-4.65,8.17-14.47,11.89-23.49,9.23c-27.7-8.17-99.25-29.85-187.7-18.13
		c-1.88,0.25-3.83-0.24-5.26-1.49C1427.25,1706.03,1426.2,1704.26,1426.56,1701.45z"/>
	<path class="st4" d="M1663.81,1819.06h-270.03c-6,0-10.91-4.91-10.91-10.91v-1.26c0-6,4.91-10.91,10.91-10.91h270.03
		c6,0,10.91,4.91,10.91,10.91v1.26C1674.72,1814.15,1669.81,1819.06,1663.81,1819.06z"/>
	<path class="st4" d="M1517.41,2034.6c19.57,0.79,67.96,4.84,112.25-8.58c3.2-0.97,5.77,2.69,3.65,5.27
		c-0.25,0.31-4.75,6.65-14.43,12.61c-10.22,6.29-36.32,5.76-45.42,5.96c-14.59,0.32-65.52-5.21-65.52-11.17
		C1507.95,2034.97,1516.02,2034.55,1517.41,2034.6z"/>
	<path class="st4" d="M1449.41,2059.18c9.93,2.83,30.97,7.82,72.46,14.25c1.81,0.28,3.52,1.16,4.65,2.61
		c1.04,1.34,1.72,3.24,0.64,5.72c-0.92,2.11-2.76,3.65-4.93,4.42c-6.32,2.22-24.18,5.31-63.23-7.61c-2.4-0.79-4.57-2.16-6.34-3.97
		c-2.21-2.27-5.27-5.72-7.66-9.66C1443.16,2061.91,1446.01,2058.21,1449.41,2059.18z"/>
	<path class="st4" d="M1514.15,2120.5c8.38,0.49,22.18,0.88,37.53-0.32c1.81-0.14,2.42,2.37,0.75,3.07l-17.95,7.56
		c-3.58,1.51-7.67,1.25-11.03-0.7l-10.37-6C1511.31,2123.09,1512.11,2120.38,1514.15,2120.5z"/>
	<path class="st4" d="M1702.27,1758.75c0,0,36.43,218.66,20.1,213.68c-4.11-1.26-6.7-5.64-8.19-9.68
		C1709.09,1948.94,1702.27,1898.72,1702.27,1758.75z"/>
	<path class="st4" d="M1361.02,1758.75c0,0-36.43,218.66-20.1,213.68c4.11-1.26,6.7-5.64,8.19-9.68
		C1354.19,1948.94,1361.02,1898.72,1361.02,1758.75z"/>
	<path class="st0" d="M1657.59,1997.75c0,0-60.31-10.04-102-55.65c0,0-10.2-10.39-26.76-9.8c-10.42,0.37-20.13,5.29-27.09,13.06
		c-9.66,10.79-31.69,31.9-100.96,51.85c0,0,18.57,22.13,131.74,29.58C1532.51,2026.78,1622.88,2034.43,1657.59,1997.75z"/>
	<path class="st3" d="M1564.72,2001.36c0,0,23.63,12.77,40.76,10.54c0,0,32.23-9.16,35.1-10.54c0,0,10.22-1.66-20.26-13.43
		l33.38,9.04v7.48l-55.77,17.79L1564.72,2001.36z"/>
	<path class="st3" d="M1498.27,2000.72l-6.69,12.16c-0.76,1.38,0.04,3.09,1.58,3.39c8.99,1.73,36.91,6.02,74.5,1.4
		c1.77-0.22,2.62-2.28,1.51-3.67c-2.04-2.57-5.26-7.08-9.87-14.76l25.31,17.12l-6.31,10l-49.11,1.08l-53.25-5.46l-1.53-6.37
		L1498.27,2000.72z"/>
	<path class="st3" d="M1486.06,2006.36c0,0-19.83,7.98-34.71,3.03l-27.54-7.93c0,0-1.79-1.34,2.26-3.33
		c4.99-2.45,9.86-5.15,14.45-8.28c2.56-1.75,5.71-3.88,9.53-6.45l-12.19,1.94l-33.96,14.41l8.38,4.68l23.37,8.7l20.66,5.16h14.75
		L1486.06,2006.36z"/>
	<path class="st3" d="M1575.6,1977.97c0,0-6.61-9.26-4.37-12.24c0,0,1.07-4.58,15.64,3.72l-25.31-20.85l-5.9,6.76l17.6,25.64
		L1575.6,1977.97z"/>
	<path class="st3" d="M1487.1,1976.9c0,0,7.07-10.42,4.84-13.4c0,0,0.1-4.7-14.47,3.61l24.15-20.73l5.9,6.76l-17.6,25.64
		L1487.1,1976.9z"/>
	<path class="st3" d="M1514.65,1947.86c0,0,2-10.42,17.12-10.42c0,0,12.66,0.74,15.64,11.17l1.49-14.82l-17.85-6.71l-15.98,4.29
		l-5.63,10.41L1514.65,1947.86z"/>
	<g>
		<path class="st5" d="M1605.48,1937.49c0,0,19.27-1.69,29.48-19.29c0,0-27.03,20.77-50.08,5.42c-1.88-1.25-4.43-0.65-5.51,1.33l0,0
			c-0.91,1.67-0.47,3.75,1.05,4.9C1584.59,1933.01,1593.6,1938.43,1605.48,1937.49z"/>
		<path class="st5" d="M1456.12,1939.47c11.91,0.25,20.59-5.68,24.57-9.08c1.45-1.23,1.77-3.34,0.76-4.95l0,0
			c-1.2-1.92-3.77-2.37-5.58-1.01c-22.12,16.66-50.31-2.51-50.31-2.51C1436.79,1938.9,1456.12,1939.47,1456.12,1939.47z"/>
		<path class="st5" d="M1787.7,2045.4c-9.17-2.41-22.58-16.28-34.44-68.7c-7.21-31.88-36.88-222.08-36.88-222.08
			c-6.18-32.74-26.38-55.92-61.77-70.88c-6.78-2.87-29.23-9.05-29.23-9.05l-0.07-0.02c-70.32-15.11-123.41-10.92-186.22,0.73
			c0,0-29.81,6.89-40.17,11.74c-30.44,14.24-47.22,35.69-52.82,67.53l-19.06,120.98c-20.85,146.67-34.99,163.05-52.26,169.75
			l-5.8,1.52l5.39,2.64c0.74,0.36,18.33,8.83,42.84,6.96c14.4-1.1,28.18-5.56,40.95-13.27c10.27-6.2,19.89-14.51,28.76-24.83
			c4.59-5.33,13.14-4.17,16.12,2.2c5.8,12.38,13.52,27.96,16.45,32.83c22.79,37.88,51.68,68.32,84.5,89.26
			c13.42,8.8,22.43,12.59,23.35,12.97l0.86,0.41l0.93-0.4c0.01,0,0.02-0.01,0.03-0.01c52.51-20.93,100.96-86.36,105.83-94
			c10.19-15.96,17.62-30.86,22.62-42.1c3.03-6.81,12.12-8.07,16.92-2.37c9.16,10.88,19.14,19.61,29.81,26.05
			c12.78,7.71,26.55,12.18,40.95,13.27c2.43,0.19,4.79,0.27,7.08,0.27c20.76,0,35.1-6.9,35.76-7.23l5.38-2.64L1787.7,2045.4z
			 M1413.99,1691.09c37.33-12.49,87.75-15.15,111.82-15.72c0,0,67.07-4.75,122.03,16.43c22.58,10.86,11.31,33.38,10.53,34.86
			c-7.22,10.96-13.72,26.4-13.44,46.24h-226.34c0.28-19.8-6.2-35.22-13.4-46.18C1404.83,1726.04,1391.09,1699.99,1413.99,1691.09z
			 M1385.1,1705.12l0.04,0.04c-0.05-0.04-0.09-0.09-0.13-0.13L1385.1,1705.12z M1347.25,2039.58c-0.7,0.45-1.42,0.89-2.14,1.34
			c-28.97,18.31-56.05,9.62-62.52,7.13c-0.6-0.23-0.68-1.03-0.14-1.39c1.62-1.08,3.18-2.47,4.7-4.12
			c9.38-8.1,27.94-34.07,40.29-116.28c0,0,14.15-93.07,25.31-157.09c2.37-13.59,5.75-24.47,9.61-33.23
			c7.54-17.11,31.55-18.04,40.2-1.46c2.08,4,3.76,8.06,5,12.18c3.68,12.14,2.7,21.35,2.23,25.78c-0.02,0.16-0.03,0.3-0.05,0.44
			h-19.45c-13.57,0-24.57,11-24.57,24.57v46.91c0,8.88,4.73,16.67,11.81,20.99v35.33c0,18.9,1.76,37.61,5.21,55.9
			C1388.84,1988.88,1374.94,2021.88,1347.25,2039.58z M1403.87,2004.44C1403.86,2004.44,1403.86,2004.44,1403.87,2004.44
			c0.01,0,0.02,0.01,0.03,0.01C1403.88,2004.44,1403.88,2004.44,1403.87,2004.44z M1577.21,2115.91
			c-13.69,12.8-29.3,24.76-46.67,34.07c-1.41,0.75-3.1,0.76-4.53,0.05l-0.02-0.01c-16.15-8.64-30.68-19.57-43.51-31.34
			c-2.68-2.46-0.58-6.92,3.02-6.43c19.02,2.57,53.27,5.15,88.62-2.31C1577.56,2109.2,1579.78,2113.5,1577.21,2115.91z
			 M1610.14,2079.72c-0.07,0.09-0.14,0.17-0.2,0.26c-6.58,8.38-15.38,14.77-25.43,18.3c-1.95,0.68-3.99,1.36-6.13,2.01
			c-18.88,5.78-48.74,11.06-89.74,7.13c-13.08-1.25-25.17-7.6-33.54-17.73c-9.6-11.61-17.58-22.92-23.86-32.63
			c-3.61-5.59,1.7-12.62,8.06-10.7c43.82,13.27,81.85,18.98,111.68,21.05c9.42,0.79,19.07,1.24,28.85,1.24
			c7.88,0,15.83-0.3,23.79-0.95C1610.11,2067.18,1614.16,2074.59,1610.14,2079.72z M1644.33,2027.28c-0.04,0.08-0.09,0.17-0.13,0.25
			c0,0-5.25,10.53-15.22,25.85c-3.07,4.72-8.05,7.89-13.63,8.61c-49.04,6.32-99.16-2.16-134.12-11.01
			c-29.25-7.4-53.66-13.99-64.24-20.88c-5.08-3.31-6.57-9.27-6.92-10.93c-1.23-5.89,2.61-11.29,8.31-9.37
			c34.73,11.73,126.52,36.42,217.19,7.14C1641.81,2014.91,1647.39,2021.46,1644.33,2027.28z M1650.28,2002.11
			c-14.28,6.13-32.36,11.29-41.09,13.64c-4.12,1.11-8.45,1.2-12.59,0.22c-8-1.89-22.09-6.95-40.25-20.46c0,0,8.17,13.06,22.16,20.81
			c2.53,1.4,1.84,5.2-1.03,5.58c-3.27,0.43-6.56,0.81-9.87,1.14c-27.23,2.67-38.8,1.52-76.03-1.46c-0.22-0.02-3.8-0.53-7.61-1.08
			c-2.77-0.4-3.48-4.02-1.11-5.5c12.6-7.82,19.89-19.47,19.89-19.47c-14.27,10.61-26.02,16.01-34.28,18.75
			c-4.59,1.52-9.5,1.78-14.21,0.7c-12.33-2.83-27.59-7.66-37.77-11.14c-3.18-1.08-3.06-5.62,0.17-6.53
			c15.53-4.38,43.42-15.9,82.69-46.18c2.57-1.98,6.06,0.8,4.71,3.75c-14.68,32.12-61.62,49.58-61.62,49.58
			c56.84-16.62,70.01-44.35,72.93-58.57c1.52-7.41,7.94-12.88,15.51-12.85c0.42,0,0.85,0.01,1.29,0.04
			c7.19,0.42,13.11,5.76,14.56,12.82c2.92,14.22,16.09,41.94,72.92,58.56c0,0-45.78-17.02-61.06-48.39c-1.4-2.88,2.1-5.68,4.62-3.7
			c18.97,14.83,54.69,39.72,86.47,44.75c2.56,0.41,3.07,3.94,0.69,4.98C1650.32,2002.09,1650.3,2002.1,1650.28,2002.11z
			 M1659.58,1989.6c-9.72-2.1-61.77-14.95-106.17-57.33c0,0-18.67-16.43-42.49-1.54c0,0-69.24,57.33-111.36,61.15
			c-15.84-50.67-14.09-103.25-13.07-119.41c0.13-2,1.78-3.54,3.78-3.54h0.04h277.71h0.04c2.06,0,3.76,1.59,3.89,3.64
			C1672.96,1888.6,1674.63,1939.74,1659.58,1989.6z M1670.25,1857.03h-284.39c0,0-9.25,0.54-13.8-11.83
			c-1.28-3.49-1.85-7.19-1.85-10.91v-29.92c0-2.62,0.36-5.23,1.19-7.71c1.82-5.4,6.17-11.86,16.56-11.86h284.39
			c0,0,9.25-0.54,13.8,11.83c1.28,3.47,1.85,7.16,1.86,10.86l0.1,30.45C1688.12,1837.95,1688.12,1857.03,1670.25,1857.03z
			 M1780.49,2047.74c-0.02,0.01-0.03,0.02-0.03,0.02c-34.69,6.58-55.18-3.15-64.79-9.07c-0.72-0.45-1.44-0.89-2.15-1.35
			c-27.97-17.89-42.34-51.04-36.76-83.78c2.61-15.32,4.61-33.4,4.1-51.39v-36.88c7.03-4.33,11.73-12.09,11.73-20.94v-46.91
			c0-13.57-8.93-24.57-24.57-24.57h-13.78c-0.49-3.22-1.2-10.78,0.81-20.52c0.85-4.16,2.28-9.02,4.62-14.31
			c7.82-17.67,33.16-17.53,40.8,0.22c3.71,8.61,6.94,19.22,9.24,32.38c11.17,64.03,25.31,157.09,25.31,157.09
			c16.47,97.01,35.45,115.02,45.45,118.36C1781.24,2046.38,1781.22,2047.38,1780.49,2047.74z"/>
		<path class="st6" d="M1607.28,1890.96c0,0,23.51-4.89,41.47,13.61c0.46,0.48,0.69,1.14,1.06,1.69c1.17,1.73,4.29,7.14-0.39,9.97
			c-3.07,1.86-7.06,0.94-9.29-1.87c-3.6-4.55-12.43-12.13-32.43-14.87c-2.84-0.39-4.72-3.36-3.65-6.03
			C1604.51,1892.31,1605.47,1891.34,1607.28,1890.96z"/>
		<path class="st6" d="M1450.34,1890.96c0,0-23.51-4.89-41.47,13.61c-0.46,0.48-0.69,1.14-1.06,1.69c-1.17,1.73-4.29,7.14,0.39,9.97
			c3.07,1.86,7.06,0.94,9.29-1.87c3.6-4.55,12.43-12.13,32.43-14.87c2.84-0.39,4.72-3.36,3.65-6.03
			C1453.11,1892.31,1452.16,1891.34,1450.34,1890.96z"/>
	</g>
	<path class="st4" d="M1522.84,1947.86c-5.8,6.96-2.49,17.09-5.43,26.65c-2.36,7.67,1.33,15.96,9.25,17.26
		c0.28,0.05,0.57,0.09,0.86,0.12c0,0,0.34,0.08,0.94,0.15c9.03,1.07,16.55-6.87,15.2-15.86l-3.48-23.11
		C1538.98,1945.14,1526.56,1943.4,1522.84,1947.86z"/>
</g>
<g>
	<path class="st5" d="M1817.79,1801.38c32.61,0,49.38,19.51,49.38,53.64v6.71h-31.7v-8.84c0-15.24-6.09-21.03-16.76-21.03
		c-10.67,0-16.76,5.79-16.76,21.03c0,43.89,65.53,52.12,65.53,113.08c0,34.14-17.07,53.64-49.98,53.64
		c-32.92,0-49.99-19.51-49.99-53.64v-13.11h31.7v15.24c0,15.24,6.7,20.73,17.37,20.73s17.37-5.49,17.37-20.73
		c0-43.89-65.53-52.12-65.53-113.08C1768.42,1820.89,1785.18,1801.38,1817.79,1801.38z"/>
	<path class="st5" d="M1920.2,2017.18h-33.53v-213.35h33.53v91.44h38.1v-91.44h34.14v213.35h-34.14v-91.44h-38.1V2017.18z"/>
	<path class="st5" d="M2050.35,1893.73h46.02v30.48h-46.02v62.48h57.91v30.48h-91.44v-213.35h91.44v30.48h-57.91V1893.73z"/>
	<path class="st5" d="M2199.09,2017.18c-1.83-5.49-3.05-8.84-3.05-26.21v-33.53c0-19.81-6.7-27.13-21.94-27.13h-11.58v86.87h-33.53
		v-213.35h50.59c34.75,0,49.68,16.15,49.68,49.07v16.76c0,21.95-7.01,36.27-21.95,43.28c16.76,7.01,22.25,23.16,22.25,45.41v32.92
		c0,10.36,0.3,17.98,3.66,25.91H2199.09z M2162.52,1834.3v65.53h13.11c12.5,0,20.12-5.49,20.12-22.55v-21.03
		c0-15.24-5.18-21.95-17.07-21.95H2162.52z"/>
	<path class="st5" d="M2350.88,1856.55v27.74c0,34.14-16.46,52.73-49.98,52.73h-15.85v80.16h-33.53v-213.35h49.38
		C2334.42,1803.82,2350.88,1822.41,2350.88,1856.55z M2285.05,1834.3v72.24h15.85c10.67,0,16.46-4.88,16.46-20.12v-32
		c0-15.24-5.79-20.12-16.46-20.12H2285.05z"/>
	<path class="st5" d="M2472.5,2017.18h-33.83l-5.79-38.71h-41.15l-5.79,38.71h-30.78l34.14-213.35h49.07L2472.5,2017.18z
		 M2396,1949.51h32.31l-16.16-107.9L2396,1949.51z"/>
</g>
<g>
	<g>
		<path class="st0" d="M553.93,494.98c0,0,81.2,102.95,162.5,62.08c0,0-28.7,5.13-53.7-111.87l-46.04-286.2
			c0,0-14.56-72.53-97.76-87.16c0,0-194.06-63.92-346.13,29.72c0,0-25.6,2.64-46.33,88.64l-43.74,274c0,0-16.97,80.74-47.99,92.87
			c0,0,72.08,48.63,149.28-55.87l3.2-20.5c0,0-22.14-136.36-11.57-168.68l392.15-2.56C567.8,309.44,581.64,356.27,553.93,494.98z"/>
		<path class="st1" d="M176.72,315.19h393.74c0,0,41.13,258.88-197.74,387C372.72,702.19,158.72,627.19,176.72,315.19z"/>
		<path class="st2" d="M392.47,71.82"/>
		<path class="st0" d="M203.93,497.03c0,0,119.36,65.03,335.58,13.59c0,0-31.64,123.32-167.21,190.44
			C372.29,701.07,234.13,639.88,203.93,497.03z"/>
		<path class="st3" d="M596.32,134.63c0,0-49.44-8.45-43.59,56.55l-12.5-1c0,0-6.41-54.97,28.05-64.48
			C568.27,125.7,584.91,123.08,596.32,134.63z"/>
		<path class="st3" d="M152.72,131.84c0,0,52.13-13.65,47,59.35l12.1-1c0,0,6.75-57.74-29.55-67.73
			C182.27,122.45,164.74,119.7,152.72,131.84z"/>
		<path class="st3" d="M241.72,514.19c0,0-2.9-1.12-6.49-1.45c-8.09-0.75-13.19,8.73-8.04,15.01c2.22,2.7,5.79,5.41,11.53,7.44
			c0,0,148.77,54.27,268,31c0,0-4.14,13.45-27.57,15.23c0,0-115.45,17.43-260.44-42.4c0,0-14.5-20.61-14.75-29.22
			C203.97,509.79,206.18,496.86,241.72,514.19z"/>
		<path class="st3" d="M470.72,571.19c20-3,34-11,51-30c0,0,4,26-29.75,28.28C476.52,570.51,470.72,571.19,470.72,571.19z"/>
		<path class="st3" d="M457.26,587.08c0,0,1.16,0.08,2.9,0.33c11.33,1.62,9.26,13.95-5.44,24.77c-0.09,0.07-21,16-94,18
			c0,0-83,1-101-31c0,0,19,34,33,38c0,0,37.17,9.14,88.58,5.57c0,0,83.42-7.57,96.42-30.57c0,0,13.84-13.14,5.42-24.07
			C483.14,588.11,473.8,580.97,457.26,587.08z"/>
		<path class="st3" d="M322.52,647.07c0,0-0.01-0.01-0.03,0c-3.77,1.11-2.77,5.11-0.77,7.11c6.5,6.5,21.44,16.09,45.14,29.77
			c2.49,1.44,5.47,1.75,8.21,0.86c7.17-2.33,22.5-7.6,40.66-15.64l-7.77,7.66l-38.24,24.22l-64.15-44.04l0.16-11.85
			C305.72,645.19,315.32,645.96,322.52,647.07z"/>
		<rect x="221.72" y="172.19" class="st3" width="307" height="18"/>
		<path class="st3" d="M527.72,190.19c0,0,2-19,10-47c0,0-18.77,13-25,47H527.72z"/>
		<path class="st3" d="M237.72,190.19c0,0-5-36-24-47c0,0,9,23,10,47H237.72z"/>
		<path class="st3" d="M585.58,273.19l0.07-18.5c-0.05,14.5-8.04,17.85-13.24,18.5H171.96c-5.2-0.65-13.18-4-13.24-18.5l0.07,18.5
			h-0.07v11.15c0,10.41,8.44,18.85,18.85,18.85h389.3c10.41,0,18.85-8.44,18.85-18.85v-11.15H585.58z"/>
		<path class="st3" d="M585.72,303.19c0,0,4.9,63.83-3.39,124.71c-3.34,24.52,0.35,49.59,11.62,71.63
			c12.09,23.65,33.44,47.24,70.77,49.66c0,0,20.57-0.04,6.78-21.02c0,0-26.15-51.51-24.97-144.24c0,0,28.13,149.46,58.66,167.86
			l11.23,10.53c0,0-36.02,5.21-50.86,6.04c0,0-57.22-3.48-105.03-71.32c0,0-6.58,6.99,4.3-87.93c0,0,8.76-91.92,8.32-93.92
			C572.72,313.19,585.72,303.19,585.72,303.19z"/>
		<path class="st3" d="M157.26,303.19c0,0-4.93,64.23,3.46,125.28c3.14,22.8,0.07,46.1-9.68,66.94c-11.4,24.37-32.26,49.97-70,53.55
			c-3.04,0.29-6.13-0.79-8.05-3.15c-2.14-2.63-3.27-7.13,0.73-14.63c0,0,29-34,29-144c0,0-27,118-50,154l-18,19
			c0,0,27.86,7.34,42.7,8.17c0,0,57.22-3.48,105.03-71.32c0,0,6.58,6.99-4.3-87.93c0,0-8.76-91.92-8.32-93.92
			C170.26,313.19,157.26,303.19,157.26,303.19z"/>
		<path class="st4" d="M234.41,94.22c0.68-5.36,3.98-10.17,9.31-11.03c34.21-5.53,188.56-28.39,269,7
			c16.67,7.33,20.89,15.34,15.04,25.64c-6.24,10.98-19.44,15.96-31.56,12.39c-37.21-10.97-133.3-40.09-252.1-24.35
			c-2.53,0.33-5.14-0.32-7.06-2C235.34,100.38,233.93,97.99,234.41,94.22z"/>
		<path class="st4" d="M555.72,252.19h-368c-6.6,0-12-5.4-12-12v-7c0-6.6,5.4-12,12-12h368c6.6,0,12,5.4,12,12v7
			C567.72,246.79,562.32,252.19,555.72,252.19z"/>
		<path class="st4" d="M356.44,541.69c26.28,1.06,91.28,6.49,150.77-11.52c4.29-1.3,7.75,3.62,4.9,7.08
			c-0.34,0.41-6.39,8.93-19.39,16.93c-13.73,8.45-48.78,7.73-61,8c-19.6,0.43-88-7-88-15C343.72,542.19,354.57,541.62,356.44,541.69
			z"/>
		<path class="st4" d="M265.1,574.7c13.34,3.8,41.6,10.5,97.33,19.14c2.43,0.38,4.73,1.56,6.24,3.51c1.4,1.8,2.31,4.36,0.86,7.69
			c-1.23,2.83-3.71,4.91-6.62,5.93c-8.49,2.98-32.48,7.13-84.93-10.23c-3.22-1.07-6.14-2.9-8.51-5.33
			c-2.97-3.05-7.07-7.69-10.29-12.97C256.7,578.37,260.53,573.39,265.1,574.7z"/>
		<path class="st4" d="M352.06,657.06c11.26,0.65,29.79,1.19,50.41-0.43c2.44-0.19,3.26,3.18,1,4.13l-24.11,10.15
			c-4.81,2.03-10.3,1.68-14.82-0.94l-13.93-8.06C348.24,660.54,349.32,656.9,352.06,657.06z"/>
		<path class="st4" d="M604.72,171.19c0,0,48.93,293.7,27,287c-5.53-1.69-9-7.58-11-13C613.89,426.63,604.72,359.19,604.72,171.19z"
			/>
		<path class="st4" d="M146.38,171.19c0,0-48.93,293.7-27,287c5.53-1.69,9-7.58,11-13C137.21,426.63,146.38,359.19,146.38,171.19z"
			/>
		<path class="st0" d="M544.72,492.19c0,0-81-13.48-137-74.74c0,0-13.69-13.96-35.95-13.16c-14,0.5-27.04,7.1-36.39,17.54
			c-12.98,14.5-42.57,42.84-135.61,69.64c0,0,24.94,29.73,176.94,39.73C376.72,531.19,498.1,541.46,544.72,492.19z"/>
		<path class="st3" d="M419.98,497.03c0,0,31.74,17.15,54.74,14.15c0,0,43.29-12.3,47.15-14.15c0,0,13.73-2.24-27.21-18.04
			l44.84,12.14v10.05l-74.91,23.89L419.98,497.03z"/>
		<path class="st3" d="M330.72,496.19l-8.98,16.33c-1.02,1.85,0.06,4.15,2.13,4.55c12.08,2.33,49.57,8.08,100.07,1.88
			c2.37-0.29,3.52-3.06,2.03-4.93c-2.74-3.45-7.07-9.51-13.25-19.82l34,23l-8.47,13.44l-65.96,1.45l-71.52-7.33l-2.05-8.56
			L330.72,496.19z"/>
		<path class="st3" d="M314.33,503.76c0,0-26.63,10.72-46.62,4.07l-36.99-10.65c0,0-2.4-1.8,3.03-4.47
			c6.7-3.3,13.24-6.92,19.41-11.13c3.44-2.35,7.68-5.22,12.79-8.66l-16.38,2.61l-45.62,19.36l11.25,6.28l31.39,11.68l27.74,6.94
			h19.82L314.33,503.76z"/>
		<path class="st3" d="M434.6,465.62c0,0-8.87-12.43-5.87-16.43c0,0,1.43-6.15,21,5l-34-28l-7.93,9.08l23.64,34.44L434.6,465.62z"/>
		<path class="st3" d="M315.72,464.19c0,0,9.5-14,6.5-18c0,0,0.14-6.31-19.43,4.85l32.43-27.85l7.93,9.08l-23.64,34.44
			L315.72,464.19z"/>
		<path class="st3" d="M352.72,425.19c0,0,2.68-14,23-14c0,0,17,1,21,15l2-19.91l-23.98-9.02l-21.46,5.77L345.72,417L352.72,425.19z
			"/>
		<g>
			<path class="st5" d="M474.72,411.25c0,0,25.88-2.27,39.59-25.9c0,0-36.3,27.9-67.26,7.29c-2.53-1.68-5.95-0.88-7.4,1.78l0,0
				c-1.23,2.24-0.63,5.03,1.41,6.57C446.66,405.24,458.77,412.51,474.72,411.25z"/>
			<path class="st5" d="M274.12,413.91c15.99,0.33,27.66-7.63,33-12.19c1.94-1.66,2.38-4.48,1.03-6.65h0
				c-1.61-2.57-5.07-3.18-7.49-1.35c-29.71,22.38-67.57-3.37-67.57-3.37C248.15,413.14,274.12,413.91,274.12,413.91z"/>
			<path class="st5" d="M719.47,556.19c-12.31-3.24-30.33-21.87-46.26-92.27c-9.69-42.82-49.54-298.29-49.54-298.29
				c-8.3-43.97-35.43-75.11-82.96-95.2c-9.11-3.85-39.26-12.15-39.26-12.15l-0.1-0.02C406.9,37.96,335.6,43.59,251.23,59.23
				c0,0-40.04,9.25-53.96,15.77c-40.88,19.13-63.43,47.94-70.95,90.7l-25.6,162.5c-28,197-47,219-70.19,228l-7.79,2.05l7.23,3.55
				c0.99,0.49,24.61,11.86,57.54,9.35c19.34-1.47,37.85-7.47,55-17.83c13.79-8.32,26.71-19.49,38.63-33.35
				c6.16-7.16,17.65-5.6,21.65,2.95c7.78,16.63,18.16,37.56,22.1,44.1c30.61,50.88,69.41,91.76,113.5,119.88
				c18.02,11.82,30.13,16.91,31.36,17.41l1.15,0.55l1.25-0.54c0.01-0.01,0.02-0.01,0.04-0.02c70.53-28.11,135.6-116,142.15-126.26
				c13.68-21.44,23.67-41.44,30.38-56.54c4.07-9.15,16.28-10.84,22.73-3.18c12.3,14.62,25.7,26.34,40.03,34.99
				c17.16,10.36,35.67,16.35,55,17.83c3.27,0.25,6.44,0.36,9.51,0.36c27.88,0,47.14-9.27,48.03-9.71l7.23-3.55L719.47,556.19z
				 M217.53,80.3c50.14-16.78,117.85-20.35,150.2-21.12c0,0,90.08-6.38,163.91,22.07c30.33,14.59,15.18,44.83,14.15,46.83
				c-9.69,14.72-18.43,35.45-18.05,62.1H223.71c0.37-26.6-8.33-47.3-18-62.02C205.22,127.24,186.77,92.26,217.53,80.3z
				 M178.72,99.15l0.05,0.06c-0.06-0.06-0.12-0.11-0.18-0.17L178.72,99.15z M127.89,548.38c-0.95,0.6-1.91,1.19-2.88,1.8
				c-38.91,24.6-75.28,12.92-83.97,9.58c-0.8-0.31-0.91-1.39-0.19-1.87c2.17-1.45,4.27-3.32,6.31-5.53
				c12.59-10.87,37.52-45.77,54.12-156.18c0,0,19-125,34-211c3.18-18.26,7.72-32.87,12.9-44.63c10.13-22.98,42.38-24.23,54-1.96
				c2.8,5.37,5.04,10.83,6.72,16.36c4.94,16.3,3.63,28.68,3,34.63c-0.02,0.21-0.04,0.4-0.06,0.6h-26.12c-18.23,0-33,14.77-33,33v63
				c0,11.92,6.36,22.39,15.86,28.19v47.46c0,25.38,2.37,50.51,7,75.08C183.75,480.28,165.07,524.6,127.89,548.38z M203.93,501.17
				C203.93,501.17,203.93,501.17,203.93,501.17c0.01,0,0.03,0.01,0.04,0.01C203.95,501.18,203.94,501.18,203.93,501.17z
				 M436.75,650.9c-18.39,17.19-39.36,33.26-62.68,45.76c-1.89,1.01-4.17,1.03-6.09,0.07l-0.03-0.02
				c-21.69-11.6-41.21-26.29-58.44-42.1c-3.6-3.31-0.78-9.29,4.06-8.64c25.55,3.46,71.55,6.92,119.03-3.11
				C437.23,641.89,440.21,647.66,436.75,650.9z M480.99,602.29c-0.09,0.12-0.18,0.23-0.27,0.35c-8.84,11.26-20.65,19.84-34.16,24.57
				c-2.62,0.92-5.36,1.82-8.24,2.7c-25.35,7.76-65.46,14.86-120.54,9.58c-17.56-1.68-33.81-10.21-45.05-23.81
				c-12.89-15.6-23.61-30.78-32.04-43.82c-4.85-7.5,2.28-16.96,10.83-14.37c58.86,17.82,109.93,25.49,150,28.27
				c12.65,1.06,25.62,1.67,38.75,1.67c10.58,0,21.26-0.4,31.95-1.27C480.95,585.45,486.39,595.4,480.99,602.29z M526.9,531.85
				c-0.06,0.11-0.12,0.22-0.18,0.33c0,0-7.05,14.15-20.44,34.72c-4.13,6.34-10.81,10.6-18.31,11.56
				c-65.87,8.49-133.19-2.9-180.14-14.78c-39.29-9.94-72.08-18.78-86.28-28.05c-6.83-4.45-8.83-12.45-9.29-14.68
				c-1.65-7.91,3.51-15.17,11.16-12.59c46.65,15.76,169.93,48.92,291.71,9.59C523.53,515.24,531.02,524.04,526.9,531.85z
				 M534.9,498.05c-19.18,8.23-43.46,15.17-55.2,18.32c-5.53,1.49-11.34,1.61-16.92,0.29c-10.75-2.54-29.67-9.34-54.06-27.48
				c0,0,10.98,17.54,29.76,27.95c3.4,1.89,2.47,6.98-1.39,7.49c-4.39,0.58-8.81,1.09-13.25,1.53c-36.57,3.59-52.12,2.04-102.12-1.96
				c-0.29-0.02-5.1-0.71-10.22-1.46c-3.72-0.54-4.68-5.4-1.49-7.39c16.92-10.51,26.71-26.16,26.71-26.16
				c-19.17,14.25-34.95,21.5-46.04,25.18c-6.16,2.05-12.76,2.39-19.09,0.94c-16.55-3.8-37.06-10.29-50.74-14.96
				c-4.26-1.46-4.11-7.54,0.23-8.77c20.86-5.88,58.32-21.35,111.06-62.02c3.45-2.66,8.13,1.08,6.32,5.04
				c-19.72,43.14-82.76,66.59-82.76,66.59c76.34-22.33,94.03-59.57,97.95-78.67c2.05-9.96,10.66-17.3,20.83-17.26
				c0.57,0,1.15,0.02,1.73,0.05c9.66,0.56,17.61,7.74,19.56,17.22c3.92,19.1,21.62,56.33,97.95,78.66c0,0-61.49-22.87-82.01-64.99
				c-1.89-3.87,2.82-7.63,6.21-4.97c25.48,19.92,73.46,53.35,116.14,60.1c3.44,0.54,4.12,5.3,0.92,6.69
				C534.96,498.02,534.93,498.04,534.9,498.05z M547.39,481.25c-13.06-2.82-82.96-20.08-142.6-77c0,0-25.07-22.06-57.07-2.06
				c0,0-93,77-149.58,82.14c-21.27-68.06-18.93-138.68-17.55-160.38c0.17-2.68,2.4-4.76,5.08-4.76h0.05h373h0.05
				c2.76,0,5.05,2.14,5.23,4.89C565.36,345.58,567.6,414.27,547.39,481.25z M561.72,303.19H179.75c0,0-12.42,0.73-18.54-15.88
				c-1.72-4.68-2.49-9.66-2.49-14.65v-40.18c0-3.51,0.48-7.02,1.6-10.35c2.44-7.25,8.28-15.93,22.24-15.93h381.98
				c0,0,12.42-0.73,18.54,15.88c1.72,4.66,2.49,9.62,2.5,14.59l0.14,40.89C585.72,277.55,585.72,303.19,561.72,303.19z
				 M709.78,559.33c-0.02,0.01-0.04,0.02-0.04,0.03c-46.59,8.84-74.11-4.23-87.02-12.18c-0.97-0.6-1.93-1.2-2.88-1.81
				c-37.57-24.03-56.87-68.55-49.37-112.52c3.51-20.57,6.19-44.86,5.5-69.02v-49.53c9.44-5.81,15.75-16.24,15.75-28.12v-63
				c0-18.23-12-33-33-33h-18.5c-0.66-4.33-1.61-14.48,1.08-27.56c1.15-5.58,3.06-12.12,6.21-19.22c10.51-23.74,44.54-23.55,54.8,0.3
				c4.98,11.56,9.32,25.82,12.41,43.49c15,86,34,211,34,211c22.13,130.29,47.61,154.49,61.04,158.98
				C710.8,557.51,710.77,558.85,709.78,559.33z"/>
			<path class="st6" d="M477.14,348.76c0,0,31.58-6.57,55.7,18.28c0.62,0.64,0.92,1.53,1.43,2.27c1.57,2.32,5.76,9.59-0.52,13.39
				c-4.13,2.5-9.49,1.27-12.48-2.52c-4.83-6.11-16.7-16.29-43.56-19.98c-3.82-0.52-6.34-4.51-4.91-8.09
				C473.42,350.57,474.71,349.26,477.14,348.76z"/>
			<path class="st6" d="M266.36,348.76c0,0-31.58-6.57-55.7,18.28c-0.62,0.64-0.92,1.53-1.43,2.27c-1.57,2.32-5.76,9.59,0.52,13.39
				c4.13,2.5,9.49,1.27,12.48-2.52c4.83-6.11,16.7-16.29,43.56-19.98c3.82-0.52,6.34-4.51,4.91-8.09
				C270.08,350.57,268.79,349.26,266.36,348.76z"/>
		</g>
		<path class="st4" d="M363.72,425.19c-7.79,9.35-3.34,22.95-7.29,35.8c-3.17,10.3,1.79,21.43,12.42,23.18
			c0.38,0.06,0.76,0.12,1.15,0.16c0,0,0.46,0.11,1.26,0.2c12.12,1.44,22.23-9.23,20.41-21.3l-4.67-31.05
			C385.41,421.52,368.72,419.19,363.72,425.19z"/>
	</g>
	<g>
		<g>
			<path class="st8" d="M326.03,236l-9.02-14.98c-1.43-2.37-4.87-2.33-6.24,0.07l-37.76,66.12c-1.46,2.55,0.39,5.73,3.32,5.73h18.95
				c3.92,0,7.55-2.09,9.52-5.48l21.34-36.74C328.8,246.16,328.75,240.52,326.03,236z"/>
			<path class="st8" d="M341.57,263.89c-1.47-2.6-5.2-2.63-6.71-0.04l-13.6,23.38c-1.48,2.54,0.35,5.73,3.29,5.73h26.98
				c2.88,0,4.69-3.1,3.27-5.61L341.57,263.89z"/>
			<path class="st8" d="M366.27,222.66c-2.05-3.57-5.85-5.77-9.97-5.77h-19.1c-2.81,0-4.58,3.03-3.19,5.48l37.41,66.19
				c1.52,2.69,5.4,2.69,6.92,0l9.75-17.28c1.89-3.36,1.88-7.47-0.05-10.81L366.27,222.66z"/>
			<path class="st8" d="M396.16,246.17c1.4,2.41,4.88,2.39,6.25-0.04l13.43-23.85c1.36-2.41-0.38-5.39-3.15-5.39h-27.01
				c-2.88,0-4.68,3.12-3.24,5.61L396.16,246.17z"/>
			<path class="st8" d="M449.18,238.6L439.19,221c-1.32-2.32-4.66-2.33-5.98-0.01l-37.98,66.3c-1.45,2.52,0.38,5.67,3.29,5.67h18.97
				c4.06,0,7.81-2.16,9.84-5.68l21.81-37.74C451.08,246.16,451.1,242,449.18,238.6z"/>
			<path class="st8" d="M476.99,287.3l-13.59-23.64c-1.3-2.27-4.56-2.29-5.9-0.04l-13.97,23.51c-1.53,2.57,0.32,5.83,3.31,5.83
				h26.87C476.62,292.95,478.44,289.81,476.99,287.3z"/>
		</g>
	</g>
</g>
<g>
	<path class="st7" d="M60.79,1359.42c32.61,0,49.38,19.51,49.38,53.64v6.71h-31.7v-8.84c0-15.24-6.09-21.03-16.76-21.03
		s-16.76,5.79-16.76,21.03c0,43.89,65.53,52.12,65.53,113.08c0,34.14-17.07,53.64-49.98,53.64c-32.92,0-49.99-19.51-49.99-53.64
		v-13.11h31.7v15.24c0,15.24,6.7,20.73,17.37,20.73s17.37-5.49,17.37-20.73c0-43.89-65.53-52.12-65.53-113.08
		C11.42,1378.93,28.18,1359.42,60.79,1359.42z"/>
	<path class="st7" d="M163.21,1575.21h-33.53v-213.35h33.53v91.44h38.1v-91.44h34.14v213.35h-34.14v-91.44h-38.1V1575.21z"/>
	<path class="st7" d="M293.35,1451.77h46.02v30.48h-46.02v62.48h57.91v30.48h-91.44v-213.35h91.44v30.48h-57.91V1451.77z"/>
	<path class="st7" d="M442.09,1575.21c-1.83-5.49-3.05-8.84-3.05-26.21v-33.53c0-19.81-6.7-27.13-21.94-27.13h-11.58v86.87h-33.53
		v-213.35h50.59c34.75,0,49.68,16.15,49.68,49.07v16.76c0,21.95-7.01,36.27-21.95,43.28c16.76,7.01,22.25,23.16,22.25,45.41v32.92
		c0,10.36,0.31,17.98,3.66,25.91H442.09z M405.52,1392.34v65.53h13.11c12.5,0,20.12-5.49,20.12-22.55v-21.03
		c0-15.24-5.18-21.95-17.07-21.95H405.52z"/>
	<path class="st7" d="M593.88,1414.59v27.74c0,34.14-16.46,52.73-49.98,52.73h-15.85v80.16h-33.53v-213.35h49.38
		C577.43,1361.86,593.88,1380.45,593.88,1414.59z M528.05,1392.34v72.24h15.85c10.67,0,16.46-4.88,16.46-20.12v-32
		c0-15.24-5.79-20.12-16.46-20.12H528.05z"/>
	<path class="st7" d="M715.5,1575.21h-33.83l-5.79-38.71h-41.15l-5.79,38.71h-30.78l34.14-213.35h49.07L715.5,1575.21z M639,1507.55
		h32.31l-16.16-107.9L639,1507.55z"/>
</g>
<g>
	<path class="st0" d="M496.22,1185.73c0,0,60.45,76.65,120.98,46.22c0,0-21.37,3.82-39.98-83.29l-34.28-213.08
		c0,0-10.84-54-72.79-64.9c0,0-144.48-47.59-257.7,22.13c0,0-19.06,1.97-34.5,66l-32.56,204c0,0-12.64,60.11-35.73,69.14
		c0,0,53.67,36.21,111.15-41.59l2.38-15.26c0,0-16.49-101.52-8.61-125.59l291.96-1.91C506.55,1047.59,516.85,1082.46,496.22,1185.73
		z"/>
	<path class="st1" d="M215.38,1051.87h293.15c0,0,30.62,192.74-147.22,288.13C361.31,1340,201.98,1284.16,215.38,1051.87z"/>
	<path class="st2" d="M376.01,870.68"/>
	<path class="st0" d="M235.64,1187.26c0,0,88.86,48.42,249.84,10.12c0,0-23.56,91.82-124.49,141.79
		C360.99,1339.17,258.12,1293.61,235.64,1187.26z"/>
	<path class="st3" d="M527.78,917.44c0,0-36.81-6.29-32.46,42.1l-9.31-0.74c0,0-4.77-40.93,20.88-48.01
		C506.9,910.79,519.29,908.84,527.78,917.44z"/>
	<path class="st3" d="M197.51,915.36c0,0,38.81-10.16,34.99,44.19l9.01-0.74c0,0,5.02-42.99-22-50.43
		C219.51,908.37,206.46,906.33,197.51,915.36z"/>
	<path class="st3" d="M263.78,1200.03c0,0-2.16-0.83-4.83-1.08c-6.02-0.56-9.82,6.5-5.99,11.18c1.65,2.01,4.31,4.03,8.59,5.54
		c0,0,110.76,40.41,199.53,23.08c0,0-3.08,10.01-20.53,11.34c0,0-85.95,12.98-193.9-31.57c0,0-10.8-15.35-10.98-21.75
		C235.67,1196.76,237.31,1187.13,263.78,1200.03z"/>
	<path class="st3" d="M434.27,1242.47c14.89-2.23,25.31-8.19,37.97-22.34c0,0,2.98,19.36-22.15,21.05
		C438.59,1241.96,434.27,1242.47,434.27,1242.47z"/>
	<path class="st3" d="M424.25,1254.3c0,0,0.87,0.06,2.16,0.25c8.43,1.21,6.9,10.39-4.05,18.44c-0.07,0.05-15.64,11.91-69.99,13.4
		c0,0-61.8,0.74-75.2-23.08c0,0,14.15,25.31,24.57,28.29c0,0,27.67,6.81,65.95,4.15c0,0,62.11-5.64,71.78-22.76
		c0,0,10.3-9.79,4.04-17.92C443.52,1255.07,436.56,1249.75,424.25,1254.3z"/>
	<path class="st3" d="M323.93,1298.97c0,0-0.01-0.01-0.02,0c-2.8,0.83-2.06,3.81-0.57,5.3c4.84,4.84,15.96,11.98,33.6,22.17
		c1.85,1.07,4.08,1.3,6.11,0.64c5.34-1.73,16.75-5.66,30.27-11.64l-5.78,5.7l-28.47,18.03l-47.76-32.79l0.12-8.82
		C311.43,1297.56,318.57,1298.14,323.93,1298.97z"/>
	<rect x="248.89" y="945.4" class="st3" width="228.57" height="13.4"/>
	<path class="st3" d="M476.71,958.8c0,0,1.49-14.15,7.45-34.99c0,0-13.97,9.68-18.61,34.99H476.71z"/>
	<path class="st3" d="M260.8,958.8c0,0-3.72-26.8-17.87-34.99c0,0,6.7,17.12,7.45,34.99H260.8z"/>
	<path class="st3" d="M519.78,1020.6l0.05-13.77c-0.04,10.79-5.98,13.29-9.85,13.77H211.83c-3.87-0.48-9.81-2.98-9.85-13.77
		l0.05,13.77h-0.05v8.3c0,7.75,6.28,14.03,14.03,14.03h289.84c7.75,0,14.03-6.28,14.03-14.03v-8.3H519.78z"/>
	<path class="st3" d="M519.89,1042.93c0,0,3.65,47.52-2.52,92.85c-2.49,18.26,0.26,36.92,8.65,53.33
		c9,17.61,24.89,35.17,52.69,36.97c0,0,15.31-0.03,5.05-15.65c0,0-19.47-38.35-18.59-107.39c0,0,20.94,111.28,43.67,124.98
		l8.36,7.84c0,0-26.82,3.88-37.87,4.5c0,0-42.6-2.59-78.2-53.1c0,0-4.9,5.21,3.2-65.46c0,0,6.52-68.44,6.2-69.93
		C510.21,1050.38,519.89,1042.93,519.89,1042.93z"/>
	<path class="st3" d="M200.89,1042.93c0,0-3.67,47.82,2.58,93.28c2.33,16.97,0.05,34.32-7.21,49.84
		c-8.49,18.14-24.02,37.2-52.12,39.87c-2.26,0.21-4.56-0.59-5.99-2.35c-1.59-1.95-2.43-5.3,0.54-10.89c0,0,21.59-25.31,21.59-107.21
		c0,0-20.1,87.85-37.23,114.66l-13.4,14.15c0,0,20.74,5.47,31.79,6.08c0,0,42.6-2.59,78.2-53.1c0,0,4.9,5.21-3.2-65.46
		c0,0-6.52-68.44-6.2-69.93C210.57,1050.38,200.89,1042.93,200.89,1042.93z"/>
	<path class="st4" d="M258.33,887.35c0.51-3.99,2.96-7.57,6.93-8.21c25.47-4.12,140.39-21.14,200.28,5.21
		c12.41,5.46,15.55,11.42,11.2,19.09c-4.65,8.17-14.48,11.89-23.49,9.23c-27.7-8.17-99.25-29.85-187.7-18.13
		c-1.88,0.25-3.83-0.24-5.26-1.49C259.02,891.94,257.98,890.16,258.33,887.35z"/>
	<path class="st4" d="M495.58,1004.96H225.55c-6,0-10.91-4.91-10.91-10.91v-1.26c0-6,4.91-10.91,10.91-10.91h270.03
		c6,0,10.91,4.91,10.91,10.91v1.26C506.49,1000.05,501.58,1004.96,495.58,1004.96z"/>
	<path class="st4" d="M349.19,1220.51c19.57,0.79,67.96,4.84,112.25-8.58c3.2-0.97,5.77,2.69,3.65,5.27
		c-0.25,0.31-4.75,6.65-14.43,12.61c-10.22,6.29-36.32,5.76-45.42,5.96c-14.6,0.32-65.52-5.21-65.52-11.17
		C339.72,1220.88,347.79,1220.45,349.19,1220.51z"/>
	<path class="st4" d="M281.18,1245.08c9.93,2.83,30.97,7.82,72.46,14.25c1.81,0.28,3.52,1.16,4.65,2.61
		c1.04,1.34,1.72,3.24,0.64,5.72c-0.92,2.11-2.76,3.65-4.93,4.42c-6.32,2.22-24.18,5.31-63.23-7.61c-2.4-0.79-4.57-2.16-6.34-3.97
		c-2.21-2.27-5.27-5.72-7.66-9.66C274.93,1247.82,277.78,1244.11,281.18,1245.08z"/>
	<path class="st4" d="M345.92,1306.4c8.38,0.49,22.18,0.88,37.53-0.32c1.81-0.14,2.42,2.37,0.75,3.07l-17.95,7.56
		c-3.58,1.51-7.67,1.25-11.03-0.7l-10.37-6C343.08,1308.99,343.89,1306.29,345.92,1306.4z"/>
	<path class="st4" d="M534.04,944.66c0,0,36.43,218.66,20.1,213.68c-4.11-1.26-6.7-5.64-8.19-9.68
		C540.86,1134.84,534.04,1084.63,534.04,944.66z"/>
	<path class="st4" d="M192.79,944.66c0,0-36.43,218.66-20.1,213.68c4.11-1.26,6.7-5.64,8.19-9.68
		C185.97,1134.84,192.79,1084.63,192.79,944.66z"/>
	<path class="st0" d="M489.37,1183.65c0,0-60.31-10.04-102-55.65c0,0-10.2-10.39-26.76-9.8c-10.42,0.37-20.13,5.29-27.09,13.06
		c-9.66,10.79-31.69,31.9-100.96,51.85c0,0,18.57,22.13,131.74,29.58C364.29,1212.69,454.66,1220.33,489.37,1183.65z"/>
	<path class="st3" d="M396.49,1187.26c0,0,23.63,12.77,40.76,10.54c0,0,32.23-9.16,35.1-10.54c0,0,10.22-1.66-20.26-13.43
		l33.38,9.04v7.48l-55.77,17.79L396.49,1187.26z"/>
	<path class="st3" d="M330.04,1186.63l-6.69,12.16c-0.76,1.38,0.04,3.09,1.58,3.39c8.99,1.73,36.91,6.02,74.5,1.4
		c1.77-0.22,2.62-2.28,1.51-3.67c-2.04-2.57-5.26-7.08-9.87-14.76l25.31,17.12l-6.31,10l-49.11,1.08l-53.25-5.46l-1.53-6.37
		L330.04,1186.63z"/>
	<path class="st3" d="M317.83,1192.27c0,0-19.83,7.98-34.71,3.03l-27.54-7.93c0,0-1.79-1.34,2.26-3.33
		c4.99-2.45,9.86-5.15,14.45-8.28c2.56-1.75,5.71-3.88,9.53-6.45l-12.19,1.94l-33.96,14.41l8.38,4.68l23.37,8.7l20.66,5.16h14.75
		L317.83,1192.27z"/>
	<path class="st3" d="M407.38,1163.87c0,0-6.61-9.26-4.37-12.24c0,0,1.07-4.58,15.63,3.72l-25.31-20.85l-5.9,6.76l17.6,25.64
		L407.38,1163.87z"/>
	<path class="st3" d="M318.87,1162.8c0,0,7.07-10.42,4.84-13.4c0,0,0.1-4.7-14.47,3.61l24.15-20.73l5.9,6.76l-17.6,25.64
		L318.87,1162.8z"/>
	<path class="st3" d="M346.42,1133.77c0,0,2-10.42,17.12-10.42c0,0,12.66,0.74,15.64,11.17l1.49-14.82l-17.85-6.71l-15.98,4.29
		l-5.63,10.41L346.42,1133.77z"/>
	<g>
		<path class="st5" d="M437.25,1123.39c0,0,19.27-1.69,29.48-19.29c0,0-27.03,20.77-50.08,5.42c-1.88-1.25-4.43-0.65-5.51,1.33l0,0
			c-0.91,1.67-0.47,3.75,1.05,4.9C416.36,1118.91,425.38,1124.33,437.25,1123.39z"/>
		<path class="st5" d="M287.9,1125.37c11.91,0.25,20.59-5.68,24.57-9.08c1.45-1.23,1.77-3.34,0.76-4.95h0
			c-1.2-1.92-3.77-2.37-5.58-1.01c-22.12,16.66-50.31-2.51-50.31-2.51C268.56,1124.8,287.9,1125.37,287.9,1125.37z"/>
		<path class="st5" d="M619.47,1231.3c-9.17-2.41-22.58-16.28-34.44-68.7c-7.21-31.88-36.88-222.08-36.88-222.08
			c-6.18-32.74-26.38-55.92-61.77-70.88c-6.78-2.87-29.23-9.05-29.23-9.05l-0.07-0.02c-70.32-15.11-123.41-10.92-186.22,0.73
			c0,0-29.81,6.89-40.17,11.74c-30.44,14.24-47.22,35.69-52.82,67.53l-19.06,120.98c-20.85,146.67-34.99,163.05-52.26,169.75
			l-5.8,1.52l5.39,2.64c0.74,0.36,18.33,8.83,42.84,6.96c14.4-1.1,28.18-5.56,40.95-13.27c10.27-6.2,19.89-14.51,28.76-24.83
			c4.59-5.33,13.14-4.17,16.12,2.2c5.8,12.38,13.52,27.96,16.45,32.83c22.79,37.88,51.68,68.32,84.5,89.26
			c13.42,8.8,22.43,12.59,23.35,12.97l0.86,0.41l0.93-0.4c0.01,0,0.02-0.01,0.03-0.01c52.51-20.93,100.96-86.36,105.83-94
			c10.19-15.96,17.62-30.86,22.62-42.1c3.03-6.81,12.12-8.07,16.92-2.37c9.16,10.89,19.14,19.61,29.81,26.05
			c12.78,7.71,26.55,12.18,40.95,13.27c2.43,0.19,4.79,0.27,7.08,0.27c20.76,0,35.1-6.9,35.76-7.23l5.38-2.64L619.47,1231.3z
			 M245.76,876.99c37.33-12.49,87.75-15.15,111.82-15.72c0,0,67.07-4.75,122.03,16.43c22.58,10.86,11.3,33.38,10.53,34.86
			c-7.22,10.96-13.72,26.4-13.44,46.24H250.37c0.28-19.8-6.2-35.22-13.4-46.18C236.6,911.94,222.86,885.9,245.76,876.99z
			 M216.87,891.03l0.04,0.04c-0.05-0.04-0.09-0.09-0.13-0.13L216.87,891.03z M179.03,1225.49c-0.7,0.45-1.42,0.89-2.14,1.34
			c-28.97,18.31-56.05,9.62-62.52,7.13c-0.6-0.23-0.68-1.03-0.14-1.39c1.62-1.08,3.18-2.47,4.7-4.12
			c9.38-8.1,27.94-34.07,40.29-116.28c0,0,14.15-93.07,25.31-157.09c2.37-13.59,5.75-24.47,9.61-33.23
			c7.54-17.11,31.55-18.04,40.2-1.46c2.08,4,3.76,8.06,5,12.18c3.68,12.14,2.7,21.35,2.23,25.78c-0.02,0.16-0.03,0.3-0.05,0.44
			h-19.45c-13.57,0-24.57,11-24.57,24.57v46.9c0,8.88,4.73,16.67,11.81,20.99v35.33c0,18.9,1.76,37.61,5.21,55.9
			C220.61,1174.78,206.71,1207.78,179.03,1225.49z M235.64,1190.34C235.64,1190.34,235.64,1190.34,235.64,1190.34
			c0.01,0,0.02,0.01,0.03,0.01C235.66,1190.35,235.65,1190.34,235.64,1190.34z M408.98,1301.81c-13.69,12.8-29.3,24.76-46.67,34.07
			c-1.41,0.76-3.1,0.76-4.53,0.05l-0.02-0.01c-16.15-8.64-30.68-19.57-43.51-31.34c-2.68-2.46-0.58-6.92,3.02-6.43
			c19.02,2.57,53.27,5.15,88.62-2.31C409.33,1295.11,411.55,1299.41,408.98,1301.81z M441.92,1265.62c-0.07,0.09-0.14,0.17-0.2,0.26
			c-6.58,8.38-15.38,14.77-25.43,18.3c-1.95,0.68-3.99,1.36-6.13,2.01c-18.88,5.78-48.74,11.06-89.74,7.13
			c-13.08-1.25-25.17-7.6-33.54-17.73c-9.6-11.61-17.58-22.92-23.86-32.63c-3.61-5.59,1.7-12.62,8.06-10.7
			c43.82,13.27,81.85,18.98,111.68,21.05c9.42,0.79,19.07,1.24,28.85,1.24c7.88,0,15.83-0.3,23.79-0.95
			C441.89,1253.08,445.94,1260.5,441.92,1265.62z M476.1,1213.18c-0.04,0.08-0.09,0.17-0.13,0.25c0,0-5.25,10.53-15.22,25.85
			c-3.07,4.72-8.05,7.89-13.63,8.61c-49.04,6.32-99.16-2.16-134.12-11.01c-29.25-7.4-53.66-13.99-64.24-20.88
			c-5.08-3.31-6.57-9.27-6.92-10.93c-1.23-5.89,2.61-11.29,8.31-9.37c34.73,11.73,126.52,36.42,217.19,7.14
			C473.59,1200.81,479.16,1207.37,476.1,1213.18z M482.05,1188.01c-14.28,6.13-32.36,11.29-41.09,13.64
			c-4.12,1.11-8.45,1.2-12.59,0.22c-8-1.89-22.09-6.95-40.25-20.46c0,0,8.17,13.06,22.16,20.81c2.53,1.4,1.84,5.2-1.03,5.58
			c-3.27,0.43-6.56,0.81-9.87,1.14c-27.23,2.67-38.8,1.52-76.03-1.46c-0.22-0.02-3.8-0.53-7.61-1.09c-2.77-0.4-3.48-4.02-1.11-5.5
			c12.6-7.82,19.89-19.47,19.89-19.47c-14.27,10.61-26.02,16.01-34.28,18.75c-4.59,1.52-9.5,1.78-14.21,0.7
			c-12.33-2.83-27.59-7.66-37.77-11.14c-3.18-1.08-3.06-5.62,0.17-6.53c15.53-4.38,43.42-15.9,82.69-46.18
			c2.57-1.98,6.06,0.8,4.71,3.75c-14.68,32.12-61.62,49.58-61.62,49.58c56.84-16.62,70.01-44.35,72.93-58.57
			c1.52-7.41,7.94-12.88,15.51-12.85c0.42,0,0.85,0.01,1.29,0.04c7.19,0.42,13.11,5.76,14.56,12.82
			c2.92,14.22,16.09,41.94,72.92,58.56c0,0-45.78-17.02-61.06-48.39c-1.4-2.88,2.1-5.68,4.62-3.7
			c18.97,14.83,54.69,39.72,86.47,44.75c2.56,0.41,3.07,3.94,0.69,4.98C482.09,1187.99,482.07,1188,482.05,1188.01z M491.35,1175.5
			c-9.72-2.1-61.77-14.95-106.17-57.33c0,0-18.67-16.43-42.49-1.54c0,0-69.24,57.33-111.36,61.15
			c-15.84-50.67-14.09-103.25-13.07-119.41c0.13-2,1.78-3.54,3.78-3.54h0.04h277.71h0.04c2.06,0,3.76,1.59,3.89,3.64
			C504.73,1074.5,506.4,1125.64,491.35,1175.5z M502.02,1042.93H217.63c0,0-9.25,0.54-13.8-11.83c-1.28-3.49-1.85-7.19-1.85-10.91
			v-29.92c0-2.62,0.36-5.23,1.19-7.71c1.82-5.4,6.17-11.86,16.56-11.86h284.39c0,0,9.25-0.54,13.8,11.83
			c1.28,3.47,1.85,7.16,1.86,10.86l0.1,30.45C519.89,1023.85,519.89,1042.93,502.02,1042.93z M612.26,1233.64
			c-0.02,0.01-0.03,0.02-0.03,0.02c-34.69,6.58-55.18-3.15-64.79-9.07c-0.72-0.45-1.44-0.9-2.15-1.35
			c-27.97-17.89-42.34-51.04-36.76-83.78c2.61-15.32,4.61-33.4,4.1-51.39v-36.88c7.03-4.33,11.73-12.09,11.73-20.94v-46.9
			c0-13.57-8.93-24.57-24.57-24.57h-13.78c-0.49-3.22-1.2-10.78,0.81-20.52c0.85-4.16,2.28-9.02,4.62-14.31
			c7.82-17.67,33.16-17.53,40.8,0.22c3.71,8.61,6.94,19.22,9.24,32.38c11.17,64.03,25.31,157.09,25.31,157.09
			c16.47,97.01,35.45,115.02,45.45,118.36C613.02,1232.28,612.99,1233.28,612.26,1233.64z"/>
		<path class="st6" d="M439.05,1076.86c0,0,23.51-4.89,41.47,13.61c0.46,0.48,0.69,1.14,1.06,1.69c1.17,1.73,4.29,7.14-0.39,9.97
			c-3.07,1.86-7.06,0.94-9.29-1.87c-3.6-4.55-12.43-12.13-32.43-14.87c-2.84-0.39-4.72-3.36-3.65-6.03
			C436.28,1078.21,437.24,1077.24,439.05,1076.86z"/>
		<path class="st6" d="M282.12,1076.86c0,0-23.51-4.89-41.47,13.61c-0.46,0.48-0.69,1.14-1.06,1.69c-1.17,1.73-4.29,7.14,0.39,9.97
			c3.07,1.86,7.06,0.94,9.29-1.87c3.6-4.55,12.43-12.13,32.43-14.87c2.84-0.39,4.72-3.36,3.65-6.03
			C284.88,1078.21,283.93,1077.24,282.12,1076.86z"/>
	</g>
	<path class="st4" d="M354.61,1133.77c-5.8,6.96-2.49,17.09-5.43,26.65c-2.36,7.67,1.33,15.96,9.25,17.26
		c0.28,0.05,0.57,0.09,0.86,0.12c0,0,0.34,0.08,0.94,0.15c9.03,1.07,16.55-6.87,15.2-15.86l-3.48-23.11
		C370.75,1131.04,358.33,1129.3,354.61,1133.77z"/>
</g>
<g>
	<path class="st5" d="M1325.79,1359.42c32.61,0,49.38,19.51,49.38,53.64v6.71h-31.7v-8.84c0-15.24-6.09-21.03-16.76-21.03
		c-10.67,0-16.76,5.79-16.76,21.03c0,43.89,65.53,52.12,65.53,113.08c0,34.14-17.07,53.64-49.98,53.64
		c-32.92,0-49.99-19.51-49.99-53.64v-13.11h31.7v15.24c0,15.24,6.7,20.73,17.37,20.73s17.37-5.49,17.37-20.73
		c0-43.89-65.53-52.12-65.53-113.08C1276.42,1378.93,1293.18,1359.42,1325.79,1359.42z"/>
	<path class="st5" d="M1428.21,1575.21h-33.53v-213.35h33.53v91.44h38.1v-91.44h34.14v213.35h-34.14v-91.44h-38.1V1575.21z"/>
	<path class="st5" d="M1558.35,1451.77h46.02v30.48h-46.02v62.48h57.91v30.48h-91.44v-213.35h91.44v30.48h-57.91V1451.77z"/>
	<path class="st5" d="M1707.09,1575.21c-1.83-5.49-3.05-8.84-3.05-26.21v-33.53c0-19.81-6.7-27.13-21.94-27.13h-11.58v86.87h-33.53
		v-213.35h50.59c34.75,0,49.68,16.15,49.68,49.07v16.76c0,21.95-7.01,36.27-21.95,43.28c16.76,7.01,22.25,23.16,22.25,45.41v32.92
		c0,10.36,0.31,17.98,3.66,25.91H1707.09z M1670.52,1392.34v65.53h13.11c12.5,0,20.12-5.49,20.12-22.55v-21.03
		c0-15.24-5.18-21.95-17.07-21.95H1670.52z"/>
	<path class="st5" d="M1858.88,1414.59v27.74c0,34.14-16.46,52.73-49.98,52.73h-15.85v80.16h-33.53v-213.35h49.38
		C1842.43,1361.86,1858.88,1380.45,1858.88,1414.59z M1793.05,1392.34v72.24h15.85c10.67,0,16.46-4.88,16.46-20.12v-32
		c0-15.24-5.79-20.12-16.46-20.12H1793.05z"/>
	<path class="st5" d="M1980.5,1575.21h-33.83l-5.79-38.71h-41.15l-5.79,38.71h-30.78l34.14-213.35h49.07L1980.5,1575.21z
		 M1904,1507.55h32.31l-16.16-107.9L1904,1507.55z"/>
</g>
<g>
	<path class="st0" d="M1761.22,1185.73c0,0,60.45,76.65,120.98,46.22c0,0-21.37,3.82-39.98-83.29l-34.28-213.08
		c0,0-10.84-54-72.79-64.9c0,0-144.48-47.59-257.7,22.13c0,0-19.06,1.97-34.5,66l-32.56,204c0,0-12.64,60.11-35.73,69.14
		c0,0,53.67,36.21,111.15-41.59l2.38-15.26c0,0-16.49-101.52-8.61-125.59l291.96-1.91
		C1771.55,1047.59,1781.85,1082.46,1761.22,1185.73z"/>
	<path class="st1" d="M1480.38,1051.87h293.15c0,0,30.62,192.74-147.22,288.13C1626.31,1340,1466.98,1284.16,1480.38,1051.87z"/>
	<path class="st2" d="M1641.01,870.68"/>
	<path class="st0" d="M1500.64,1187.26c0,0,88.86,48.42,249.84,10.12c0,0-23.56,91.82-124.49,141.79
		C1625.99,1339.17,1523.12,1293.61,1500.64,1187.26z"/>
	<path class="st3" d="M1792.78,917.44c0,0-36.81-6.29-32.46,42.1l-9.31-0.74c0,0-4.77-40.93,20.88-48.01
		C1771.9,910.79,1784.29,908.84,1792.78,917.44z"/>
	<path class="st3" d="M1462.51,915.36c0,0,38.81-10.16,34.99,44.19l9.01-0.74c0,0,5.02-42.99-22-50.43
		C1484.51,908.37,1471.46,906.33,1462.51,915.36z"/>
	<path class="st3" d="M1528.78,1200.03c0,0-2.16-0.83-4.83-1.08c-6.02-0.56-9.82,6.5-5.99,11.18c1.65,2.01,4.31,4.03,8.59,5.54
		c0,0,110.76,40.41,199.53,23.08c0,0-3.08,10.01-20.53,11.34c0,0-85.95,12.98-193.9-31.57c0,0-10.8-15.35-10.98-21.75
		C1500.67,1196.76,1502.31,1187.13,1528.78,1200.03z"/>
	<path class="st3" d="M1699.27,1242.47c14.89-2.23,25.31-8.19,37.97-22.34c0,0,2.98,19.36-22.15,21.05
		C1703.59,1241.96,1699.27,1242.47,1699.27,1242.47z"/>
	<path class="st3" d="M1689.25,1254.3c0,0,0.87,0.06,2.16,0.25c8.43,1.21,6.9,10.39-4.05,18.44c-0.07,0.05-15.64,11.91-69.99,13.4
		c0,0-61.8,0.74-75.2-23.08c0,0,14.15,25.31,24.57,28.29c0,0,27.67,6.81,65.95,4.15c0,0,62.11-5.64,71.78-22.76
		c0,0,10.3-9.79,4.04-17.92C1708.52,1255.07,1701.56,1249.75,1689.25,1254.3z"/>
	<path class="st3" d="M1588.93,1298.97c0,0-0.01-0.01-0.02,0c-2.8,0.83-2.06,3.81-0.57,5.3c4.84,4.84,15.96,11.98,33.6,22.17
		c1.85,1.07,4.08,1.3,6.11,0.64c5.34-1.73,16.75-5.66,30.27-11.64l-5.78,5.7l-28.47,18.03l-47.76-32.79l0.12-8.82
		C1576.43,1297.56,1583.57,1298.14,1588.93,1298.97z"/>
	<rect x="1513.89" y="945.4" class="st3" width="228.57" height="13.4"/>
	<path class="st3" d="M1741.71,958.8c0,0,1.49-14.15,7.45-34.99c0,0-13.97,9.68-18.61,34.99H1741.71z"/>
	<path class="st3" d="M1525.8,958.8c0,0-3.72-26.8-17.87-34.99c0,0,6.7,17.12,7.45,34.99H1525.8z"/>
	<path class="st3" d="M1784.78,1020.6l0.05-13.77c-0.04,10.79-5.98,13.29-9.85,13.77h-298.15c-3.87-0.48-9.81-2.98-9.85-13.77
		l0.05,13.77h-0.05v8.3c0,7.75,6.28,14.03,14.03,14.03h289.84c7.75,0,14.03-6.28,14.03-14.03v-8.3H1784.78z"/>
	<path class="st3" d="M1784.89,1042.93c0,0,3.65,47.52-2.52,92.85c-2.49,18.26,0.26,36.92,8.65,53.33
		c9,17.61,24.89,35.17,52.69,36.97c0,0,15.31-0.03,5.05-15.65c0,0-19.47-38.35-18.59-107.39c0,0,20.94,111.28,43.67,124.98
		l8.36,7.84c0,0-26.82,3.88-37.87,4.5c0,0-42.6-2.59-78.2-53.1c0,0-4.9,5.21,3.2-65.46c0,0,6.52-68.44,6.2-69.93
		C1775.21,1050.38,1784.89,1042.93,1784.89,1042.93z"/>
	<path class="st3" d="M1465.89,1042.93c0,0-3.67,47.82,2.58,93.28c2.33,16.97,0.05,34.32-7.21,49.84
		c-8.49,18.14-24.02,37.2-52.12,39.87c-2.26,0.21-4.56-0.59-5.99-2.35c-1.59-1.95-2.43-5.3,0.54-10.89c0,0,21.59-25.31,21.59-107.21
		c0,0-20.1,87.85-37.23,114.66l-13.4,14.15c0,0,20.74,5.47,31.79,6.08c0,0,42.6-2.59,78.2-53.1c0,0,4.9,5.21-3.2-65.46
		c0,0-6.52-68.44-6.2-69.93C1475.57,1050.38,1465.89,1042.93,1465.89,1042.93z"/>
	<path class="st4" d="M1523.33,887.35c0.51-3.99,2.96-7.57,6.93-8.21c25.47-4.12,140.39-21.14,200.28,5.21
		c12.41,5.46,15.55,11.42,11.2,19.09c-4.65,8.17-14.47,11.89-23.49,9.23c-27.7-8.17-99.25-29.85-187.7-18.13
		c-1.88,0.25-3.83-0.24-5.26-1.49C1524.02,891.94,1522.98,890.16,1523.33,887.35z"/>
	<path class="st4" d="M1760.58,1004.96h-270.03c-6,0-10.91-4.91-10.91-10.91v-1.26c0-6,4.91-10.91,10.91-10.91h270.03
		c6,0,10.91,4.91,10.91,10.91v1.26C1771.49,1000.05,1766.58,1004.96,1760.58,1004.96z"/>
	<path class="st4" d="M1614.19,1220.51c19.57,0.79,67.96,4.84,112.25-8.58c3.2-0.97,5.77,2.69,3.65,5.27
		c-0.25,0.31-4.75,6.65-14.43,12.61c-10.22,6.29-36.32,5.76-45.42,5.96c-14.59,0.32-65.52-5.21-65.52-11.17
		C1604.72,1220.88,1612.79,1220.45,1614.19,1220.51z"/>
	<path class="st4" d="M1546.18,1245.08c9.93,2.83,30.97,7.82,72.46,14.25c1.81,0.28,3.52,1.16,4.65,2.61
		c1.04,1.34,1.72,3.24,0.64,5.72c-0.92,2.11-2.76,3.65-4.93,4.42c-6.32,2.22-24.18,5.31-63.23-7.61c-2.4-0.79-4.57-2.16-6.34-3.97
		c-2.21-2.27-5.27-5.72-7.66-9.66C1539.93,1247.82,1542.78,1244.11,1546.18,1245.08z"/>
	<path class="st4" d="M1610.92,1306.4c8.38,0.49,22.18,0.88,37.53-0.32c1.81-0.14,2.42,2.37,0.75,3.07l-17.95,7.56
		c-3.58,1.51-7.67,1.25-11.03-0.7l-10.37-6C1608.08,1308.99,1608.89,1306.29,1610.92,1306.4z"/>
	<path class="st4" d="M1799.04,944.66c0,0,36.43,218.66,20.1,213.68c-4.11-1.26-6.7-5.64-8.19-9.68
		C1805.86,1134.84,1799.04,1084.63,1799.04,944.66z"/>
	<path class="st4" d="M1457.79,944.66c0,0-36.43,218.66-20.1,213.68c4.11-1.26,6.7-5.64,8.19-9.68
		C1450.97,1134.84,1457.79,1084.63,1457.79,944.66z"/>
	<path class="st0" d="M1754.37,1183.65c0,0-60.31-10.04-102-55.65c0,0-10.2-10.39-26.76-9.8c-10.42,0.37-20.13,5.29-27.09,13.06
		c-9.66,10.79-31.69,31.9-100.96,51.85c0,0,18.57,22.13,131.74,29.58C1629.29,1212.69,1719.66,1220.33,1754.37,1183.65z"/>
	<path class="st3" d="M1661.49,1187.26c0,0,23.63,12.77,40.76,10.54c0,0,32.23-9.16,35.1-10.54c0,0,10.23-1.66-20.26-13.43
		l33.38,9.04v7.48l-55.77,17.79L1661.49,1187.26z"/>
	<path class="st3" d="M1595.04,1186.63l-6.69,12.16c-0.76,1.38,0.04,3.09,1.58,3.39c8.99,1.73,36.91,6.02,74.5,1.4
		c1.77-0.22,2.62-2.28,1.51-3.67c-2.04-2.57-5.26-7.08-9.87-14.76l25.31,17.12l-6.31,10l-49.11,1.08l-53.25-5.46l-1.53-6.37
		L1595.04,1186.63z"/>
	<path class="st3" d="M1582.83,1192.27c0,0-19.83,7.98-34.71,3.03l-27.54-7.93c0,0-1.79-1.34,2.26-3.33
		c4.99-2.45,9.86-5.15,14.45-8.28c2.56-1.75,5.71-3.88,9.53-6.45l-12.19,1.94l-33.96,14.41l8.38,4.68l23.37,8.7l20.66,5.16h14.75
		L1582.83,1192.27z"/>
	<path class="st3" d="M1672.38,1163.87c0,0-6.61-9.26-4.37-12.24c0,0,1.07-4.58,15.64,3.72l-25.31-20.85l-5.9,6.76l17.6,25.64
		L1672.38,1163.87z"/>
	<path class="st3" d="M1583.87,1162.8c0,0,7.07-10.42,4.84-13.4c0,0,0.1-4.7-14.47,3.61l24.15-20.73l5.9,6.76l-17.6,25.64
		L1583.87,1162.8z"/>
	<path class="st3" d="M1611.42,1133.77c0,0,2-10.42,17.12-10.42c0,0,12.66,0.74,15.64,11.17l1.49-14.82l-17.85-6.71l-15.98,4.29
		l-5.63,10.41L1611.42,1133.77z"/>
	<g>
		<path class="st5" d="M1702.25,1123.39c0,0,19.27-1.69,29.48-19.29c0,0-27.03,20.77-50.08,5.42c-1.88-1.25-4.43-0.65-5.51,1.33l0,0
			c-0.91,1.67-0.47,3.75,1.05,4.9C1681.36,1118.91,1690.38,1124.33,1702.25,1123.39z"/>
		<path class="st5" d="M1552.9,1125.37c11.91,0.25,20.59-5.68,24.57-9.08c1.45-1.23,1.77-3.34,0.76-4.95l0,0
			c-1.2-1.92-3.77-2.37-5.58-1.01c-22.12,16.66-50.31-2.51-50.31-2.51C1533.56,1124.8,1552.9,1125.37,1552.9,1125.37z"/>
		<path class="st5" d="M1884.47,1231.3c-9.17-2.41-22.58-16.28-34.44-68.7c-7.21-31.88-36.88-222.08-36.88-222.08
			c-6.18-32.74-26.38-55.92-61.77-70.88c-6.78-2.87-29.23-9.05-29.23-9.05l-0.07-0.02c-70.32-15.11-123.41-10.92-186.22,0.73
			c0,0-29.81,6.89-40.17,11.74c-30.44,14.24-47.22,35.69-52.82,67.53l-19.06,120.98c-20.85,146.67-34.99,163.05-52.26,169.75
			l-5.8,1.52l5.39,2.64c0.74,0.36,18.33,8.83,42.84,6.96c14.4-1.1,28.18-5.56,40.95-13.27c10.27-6.2,19.89-14.51,28.76-24.83
			c4.59-5.33,13.14-4.17,16.12,2.2c5.8,12.38,13.52,27.96,16.45,32.83c22.79,37.88,51.68,68.32,84.5,89.26
			c13.42,8.8,22.43,12.59,23.35,12.97l0.86,0.41l0.93-0.4c0.01,0,0.02-0.01,0.03-0.01c52.51-20.93,100.96-86.36,105.83-94
			c10.19-15.96,17.62-30.86,22.62-42.1c3.03-6.81,12.12-8.07,16.92-2.37c9.16,10.89,19.14,19.61,29.81,26.05
			c12.78,7.71,26.55,12.18,40.95,13.27c2.43,0.19,4.79,0.27,7.08,0.27c20.76,0,35.1-6.9,35.76-7.23l5.38-2.64L1884.47,1231.3z
			 M1510.76,876.99c37.33-12.49,87.75-15.15,111.82-15.72c0,0,67.07-4.75,122.03,16.43c22.58,10.86,11.31,33.38,10.53,34.86
			c-7.22,10.96-13.72,26.4-13.44,46.24h-226.34c0.28-19.8-6.2-35.22-13.4-46.18C1501.6,911.94,1487.86,885.9,1510.76,876.99z
			 M1481.87,891.03l0.04,0.04c-0.05-0.04-0.09-0.09-0.13-0.13L1481.87,891.03z M1444.03,1225.49c-0.7,0.45-1.42,0.89-2.14,1.34
			c-28.97,18.31-56.05,9.62-62.52,7.13c-0.6-0.23-0.68-1.03-0.14-1.39c1.62-1.08,3.18-2.47,4.7-4.12
			c9.38-8.1,27.94-34.07,40.29-116.28c0,0,14.15-93.07,25.31-157.09c2.37-13.59,5.75-24.47,9.61-33.23
			c7.54-17.11,31.55-18.04,40.2-1.46c2.08,4,3.76,8.06,5,12.18c3.68,12.14,2.7,21.35,2.23,25.78c-0.02,0.16-0.03,0.3-0.05,0.44
			h-19.45c-13.57,0-24.57,11-24.57,24.57v46.9c0,8.88,4.73,16.67,11.81,20.99v35.33c0,18.9,1.76,37.61,5.21,55.9
			C1485.61,1174.78,1471.71,1207.78,1444.03,1225.49z M1500.64,1190.34C1500.64,1190.34,1500.64,1190.34,1500.64,1190.34
			c0.01,0,0.02,0.01,0.03,0.01C1500.66,1190.35,1500.65,1190.34,1500.64,1190.34z M1673.98,1301.81
			c-13.69,12.8-29.3,24.76-46.67,34.07c-1.41,0.76-3.1,0.76-4.53,0.05l-0.02-0.01c-16.15-8.64-30.68-19.57-43.51-31.34
			c-2.68-2.46-0.58-6.92,3.02-6.43c19.02,2.57,53.27,5.15,88.62-2.31C1674.33,1295.11,1676.55,1299.41,1673.98,1301.81z
			 M1706.92,1265.62c-0.07,0.09-0.14,0.17-0.2,0.26c-6.58,8.38-15.38,14.77-25.43,18.3c-1.95,0.68-3.99,1.36-6.13,2.01
			c-18.88,5.78-48.74,11.06-89.74,7.13c-13.08-1.25-25.17-7.6-33.54-17.73c-9.6-11.61-17.58-22.92-23.86-32.63
			c-3.61-5.59,1.7-12.62,8.06-10.7c43.82,13.27,81.85,18.98,111.68,21.05c9.42,0.79,19.07,1.24,28.85,1.24
			c7.88,0,15.83-0.3,23.79-0.95C1706.89,1253.08,1710.94,1260.5,1706.92,1265.62z M1741.1,1213.18c-0.04,0.08-0.09,0.17-0.13,0.25
			c0,0-5.25,10.53-15.22,25.85c-3.07,4.72-8.05,7.89-13.63,8.61c-49.04,6.32-99.16-2.16-134.12-11.01
			c-29.25-7.4-53.66-13.99-64.24-20.88c-5.08-3.31-6.57-9.27-6.92-10.93c-1.23-5.89,2.61-11.29,8.31-9.37
			c34.73,11.73,126.52,36.42,217.19,7.14C1738.59,1200.81,1744.16,1207.37,1741.1,1213.18z M1747.05,1188.01
			c-14.28,6.13-32.36,11.29-41.09,13.64c-4.12,1.11-8.45,1.2-12.59,0.22c-8-1.89-22.09-6.95-40.25-20.46c0,0,8.17,13.06,22.16,20.81
			c2.53,1.4,1.84,5.2-1.03,5.58c-3.27,0.43-6.56,0.81-9.87,1.14c-27.23,2.67-38.8,1.52-76.03-1.46c-0.22-0.02-3.8-0.53-7.61-1.09
			c-2.77-0.4-3.48-4.02-1.11-5.5c12.6-7.82,19.89-19.47,19.89-19.47c-14.27,10.61-26.02,16.01-34.28,18.75
			c-4.59,1.52-9.5,1.78-14.21,0.7c-12.33-2.83-27.59-7.66-37.77-11.14c-3.18-1.08-3.06-5.62,0.17-6.53
			c15.53-4.38,43.42-15.9,82.69-46.18c2.57-1.98,6.06,0.8,4.71,3.75c-14.68,32.12-61.62,49.58-61.62,49.58
			c56.84-16.62,70.01-44.35,72.93-58.57c1.52-7.41,7.94-12.88,15.51-12.85c0.42,0,0.85,0.01,1.29,0.04
			c7.19,0.42,13.11,5.76,14.56,12.82c2.92,14.22,16.09,41.94,72.92,58.56c0,0-45.78-17.02-61.06-48.39c-1.4-2.88,2.1-5.68,4.62-3.7
			c18.97,14.83,54.69,39.72,86.47,44.75c2.56,0.41,3.07,3.94,0.69,4.98C1747.09,1187.99,1747.07,1188,1747.05,1188.01z
			 M1756.35,1175.5c-9.72-2.1-61.77-14.95-106.17-57.33c0,0-18.67-16.43-42.49-1.54c0,0-69.24,57.33-111.36,61.15
			c-15.84-50.67-14.09-103.25-13.07-119.41c0.13-2,1.78-3.54,3.78-3.54h0.04h277.71h0.04c2.06,0,3.76,1.59,3.89,3.64
			C1769.73,1074.5,1771.4,1125.64,1756.35,1175.5z M1767.02,1042.93h-284.39c0,0-9.25,0.54-13.8-11.83
			c-1.28-3.49-1.85-7.19-1.85-10.91v-29.92c0-2.62,0.36-5.23,1.19-7.71c1.82-5.4,6.17-11.86,16.56-11.86h284.39
			c0,0,9.25-0.54,13.8,11.83c1.28,3.47,1.85,7.16,1.86,10.86l0.1,30.45C1784.89,1023.85,1784.89,1042.93,1767.02,1042.93z
			 M1877.26,1233.64c-0.02,0.01-0.03,0.02-0.03,0.02c-34.69,6.58-55.18-3.15-64.79-9.07c-0.72-0.45-1.44-0.9-2.15-1.35
			c-27.97-17.89-42.34-51.04-36.76-83.78c2.61-15.32,4.61-33.4,4.1-51.39v-36.88c7.03-4.33,11.73-12.09,11.73-20.94v-46.9
			c0-13.57-8.93-24.57-24.57-24.57h-13.78c-0.49-3.22-1.2-10.78,0.81-20.52c0.85-4.16,2.28-9.02,4.62-14.31
			c7.82-17.67,33.16-17.53,40.8,0.22c3.71,8.61,6.94,19.22,9.24,32.38c11.17,64.03,25.31,157.09,25.31,157.09
			c16.47,97.01,35.45,115.02,45.45,118.36C1878.02,1232.28,1877.99,1233.28,1877.26,1233.64z"/>
		<path class="st6" d="M1704.05,1076.86c0,0,23.51-4.89,41.47,13.61c0.46,0.48,0.69,1.14,1.06,1.69c1.17,1.73,4.29,7.14-0.39,9.97
			c-3.07,1.86-7.06,0.94-9.29-1.87c-3.6-4.55-12.43-12.13-32.43-14.87c-2.84-0.39-4.72-3.36-3.65-6.03
			C1701.28,1078.21,1702.24,1077.24,1704.05,1076.86z"/>
		<path class="st6" d="M1547.12,1076.86c0,0-23.51-4.89-41.47,13.61c-0.46,0.48-0.69,1.14-1.06,1.69c-1.17,1.73-4.29,7.14,0.39,9.97
			c3.07,1.86,7.06,0.94,9.29-1.87c3.6-4.55,12.43-12.13,32.43-14.87c2.84-0.39,4.72-3.36,3.65-6.03
			C1549.88,1078.21,1548.93,1077.24,1547.12,1076.86z"/>
	</g>
	<path class="st4" d="M1619.61,1133.77c-5.8,6.96-2.49,17.09-5.43,26.65c-2.36,7.67,1.33,15.96,9.25,17.26
		c0.28,0.05,0.57,0.09,0.86,0.12c0,0,0.34,0.08,0.94,0.15c9.03,1.07,16.55-6.87,15.2-15.86l-3.48-23.11
		C1635.75,1131.04,1623.33,1129.3,1619.61,1133.77z"/>
</g>
</svg>
